<svg id="Capa_1" enable-background="new 0 0 512 512" height="512" viewBox="0 0 512 512" width="512" xmlns="http://www.w3.org/2000/svg"><path d="m177.832 161.546c2.192-2.376 2.615-5.891 1.049-8.719-1.565-2.829-4.772-4.333-7.946-3.738-28.807 5.414-54.659 13.468-76.838 23.94-40.735 19.241-64.097 45.197-64.097 71.211 0 20.67 11.838 32.98 24.371 46.014 16.572 17.233 27.216 30.623 33.814 53.823 4.98 17.553 21.164 29.813 39.355 29.813 12.822 0 24.65-5.828 32.451-15.988 7.77-10.12 10.337-22.986 7.043-35.303-7.465-27.86-20.984-40.445-20.984-78.358 0-31.075 11.262-60.455 31.782-82.695zm-132.832 82.694c0-19.681 20.749-41.232 55.502-57.648 15.778-7.45 33.588-13.622 53.141-18.427-9.652 14.579-16.378 30.965-19.854 48.309-24.925 21.364-43.564 48.379-54.536 78.898-4.774-5.848-9.611-10.878-14.07-15.515-11.717-12.185-20.183-20.988-20.183-35.617zm107.544 82.238c2.079 7.773.456 15.897-4.452 22.29-4.939 6.433-12.43 10.123-20.553 10.123-11.517 0-21.767-7.775-24.926-18.912-3.289-11.564-7.677-21.142-12.564-29.312 7.799-26.794 21.831-51.01 41.075-71.059-.05 1.54-.075 3.085-.075 4.634.001 41.348 14.497 56.117 21.495 82.236z"/><path d="m365.95 244.24c0 37.941-13.508 50.461-20.983 78.352-3.304 12.285-.736 25.153 7.046 35.305 7.791 10.164 19.618 15.993 32.447 15.993 18.19 0 34.373-12.257 39.354-29.809 7.653-26.912 21.606-41.277 33.917-53.952 12.481-12.85 24.27-24.987 24.27-45.89 0-26.015-23.362-51.97-64.098-71.212-22.178-10.471-48.03-18.525-76.837-23.939-3.178-.596-6.38.91-7.946 3.738-1.566 2.829-1.144 6.343 1.049 8.719 20.529 22.252 31.781 51.637 31.781 82.695zm43.436 95.738c0 .002-.001.003-.001.005-3.158 11.132-13.408 18.907-24.925 18.907-8.125 0-15.613-3.688-20.542-10.119-4.92-6.418-6.547-14.541-4.463-22.29 6.967-25.994 21.496-40.975 21.496-82.241 0-1.543-.025-3.083-.075-4.619 19.195 20.057 33.316 44.462 41.055 70.962-4.86 8.158-9.235 17.756-12.545 29.395zm2.111-153.386c34.754 16.416 55.503 37.967 55.503 57.648 0 14.817-8.401 23.467-20.03 35.439-4.517 4.65-9.421 9.699-14.26 15.614-11.019-30.476-29.875-57.737-54.5-78.822-3.476-17.343-10.202-33.728-19.853-48.306 19.553 4.805 37.362 10.978 53.14 18.427z"/><path d="m512 244.24c0-38.636-28.865-73.543-81.276-98.292-37.074-17.513-83.443-28.877-134.096-32.866-9.169-.72-16.546-7.786-17.903-16.633h7.716c6.65 0 12.06-5.41 12.06-12.06v-20.879c0-6.65-5.41-12.06-12.06-12.06h-7.94v-9.89c0-6.65-5.41-12.06-12.06-12.06h-20.88c-6.65 0-12.06 5.41-12.06 12.06v9.89h-7.94c-6.65 0-12.06 5.41-12.06 12.06v20.88c0 6.65 5.41 12.06 12.06 12.06h7.72c-.583 3.864-2.308 7.473-4.998 10.378-3.378 3.641-7.965 5.862-12.911 6.254-32.986 2.597-64.039 8.281-92.297 16.896-3.962 1.208-6.195 5.399-4.987 9.361s5.4 6.194 9.361 4.987c27.22-8.298 57.197-13.779 89.105-16.291 8.71-.691 16.78-4.599 22.73-11.011 5.943-6.42 9.217-14.771 9.217-23.516 0-6.65-5.41-12.06-12.06-12.06h-7.94v-15h7.94c6.65 0 12.06-5.41 12.06-12.06v-9.888h15v9.89c0 6.65 5.41 12.06 12.06 12.06h7.94v15h-7.94c-3.221 0-6.248 1.252-8.523 3.526-2.281 2.281-3.537 5.311-3.537 8.533 0 17.954 14.035 33.12 31.951 34.527 48.858 3.847 93.419 14.73 128.866 31.475 46.87 22.133 72.682 52.223 72.682 84.729 0 25.456-13.046 39.552-28.151 55.874-14.347 15.502-30.475 32.928-33.405 61.79-28.261 4.621-37.837 36.009-63.742 30.217-4.51-1.492-9.251-2.423-13.839-3.324-12.546-2.463-23.381-4.59-29.866-16.74l-13.232-24.787c7.478-8.661 12.996-18.949 16.081-30.05 4.789-17.204 10.726-26.891 15.059-39.84 1.314-3.928-.804-8.178-4.732-9.492-3.929-1.313-8.178.804-9.492 4.732-4.023 12.021-10.196 22.297-15.286 40.58-1.962 7.058-5.138 13.705-9.343 19.623l-11.705-21.926c-5.404-10.121-15.89-16.408-27.366-16.408h-23.96c-11.477 0-21.962 6.287-27.366 16.408l-11.705 21.926c-4.205-5.918-7.381-12.566-9.344-19.626-8.666-31.117-19.555-38.206-19.555-68.958 0-15.274 3.626-30.238 10.505-43.44 21.899-9.636 45.249-14.521 69.445-14.521s47.546 4.884 69.445 14.521c6.766 12.985 10.391 27.698 10.502 42.713.031 4.123 3.383 7.444 7.499 7.444h.057c4.142-.031 7.475-3.414 7.444-7.556-.136-18.324-4.806-36.289-13.504-51.959-.038-.071-.077-.141-.118-.211-17.136-30.708-48.285-49.78-81.326-49.78-33.085 0-64.273 19.122-81.394 49.903-.003.005-.005.01-.008.015-.009.016-.018.032-.027.049-8.846 15.926-13.521 34.191-13.521 52.823 0 34.442 11.835 43.284 20.104 72.979 3.087 11.103 8.605 21.391 16.082 30.052l-13.233 24.787c-6.47 12.121-17.17 14.223-29.56 16.657-4.667.917-9.49 1.864-14.147 3.407-26.027 5.835-35.171-25.538-63.727-30.216-2.892-29.366-19.066-46.547-33.454-61.831-15.086-16.026-28.115-29.866-28.115-55.835 0-32.506 25.813-62.597 72.683-84.729 3.356-1.585 6.845-3.14 10.369-4.621 3.819-1.605 5.614-6.001 4.009-9.82s-6-5.615-9.82-4.009c-3.724 1.565-7.413 3.209-10.964 4.886-52.412 24.75-81.277 59.657-81.277 98.293 0 31.919 16.366 49.304 32.193 66.116 13.647 14.497 26.603 28.259 29.314 51.743-.03.006-.06.011-.089.017-15.699 3.032-24.764 19.553-18.941 34.409l16.054 40.982c-8.331.25-15.031 7.103-15.031 15.493v14c0 8.547 6.953 15.5 15.5 15.5h36.147c4.142 0 7.5-3.358 7.5-7.5s-3.358-7.5-7.5-7.5h-36.147c-.276 0-.5-.224-.5-.5v-14c0-.276.224-.5.5-.5h394c.276 0 .5.224.5.5v14c0 .276-.224.5-.5.5h-325.231c-4.142 0-7.5 3.358-7.5 7.5s3.358 7.5 7.5 7.5h325.231c8.547 0 15.5-6.953 15.5-15.5v-14c0-8.39-6.7-15.243-15.03-15.493l16.053-40.98c5.834-14.884-3.263-31.383-18.949-34.413-.021-.004-.042-.008-.063-.012 2.754-23.066 15.705-37.061 29.346-51.8 15.803-17.074 32.143-34.73 32.143-66.062zm-256-87.79c20.171 0 39.031 8.149 53.501 22.544-17.241-5.127-35.149-7.714-53.501-7.714s-36.26 2.588-53.501 7.715c14.47-14.396 33.33-22.545 53.501-22.545zm199.557 234.603v.002l-18.194 46.445h-362.726l-18.194-46.447c-2.411-6.149 1.35-12.959 7.811-14.207 29.898-5.739 40.457 39.012 79.786 29.807 1.591-.372 1.74-.95 13.295-3.219 13.4-2.632 30.078-5.909 39.901-24.312l15.656-29.328c.067-.119.132-.238.192-.36l16.801-31.472c2.79-5.226 8.206-8.472 14.134-8.472h23.96c5.928 0 11.344 3.247 14.134 8.472l16.799 31.467c.062.124.128.247.197.369l15.655 29.324c9.838 18.433 26.678 21.738 40.209 24.395 11.361 2.231 11.43 2.772 12.988 3.137 39.59 9.269 49.791-35.566 79.777-29.809 6.483 1.252 10.226 8.069 7.819 14.208z"/><path d="m256 338.317c-16.653 0-30.201 16.943-30.201 37.768s13.548 37.768 30.201 37.768 30.201-16.943 30.201-37.768-13.548-37.768-30.201-37.768zm0 60.537c-8.24 0-15.201-10.426-15.201-22.768s6.961-22.768 15.201-22.768 15.201 10.426 15.201 22.768-6.961 22.768-15.201 22.768z"/></svg>