<svg id="Capa_1" enable-background="new 0 0 512 512" height="512" viewBox="0 0 512 512" width="512" xmlns="http://www.w3.org/2000/svg"><path d="m405.897 2.211c-7.261-5.291-17.575-.532-18.208 8.433-4.147 57.525-65.717 68.72-94.189 70.797v-31.148c0-17.369-14.131-31.5-31.5-31.5h-12c-17.369 0-31.5 14.131-31.5 31.5v31.147c-28.473-2.077-90.042-13.272-94.188-70.788-.635-8.967-10.942-13.74-18.213-8.438-7.376 5.384-18.715 14.675-30.847 28.362-2.748 3.1-2.462 7.84.638 10.587s7.84 2.461 10.587-.638c8.796-9.925 17.102-17.325 23.545-22.445 1.236 8.797 3.693 16.972 7.326 24.467-20.481 26.833-43.402 70.399-43.402 130.953s22.922 104.121 43.403 130.955c-3.632 7.493-6.089 15.665-7.326 24.459-22.207-17.697-73.023-67.822-73.023-155.413 0-39.9 10.396-76.374 30.897-108.407 2.233-3.489 1.215-8.127-2.274-10.36-3.487-2.231-8.126-1.215-10.36 2.274-22.072 34.487-33.263 73.68-33.263 116.493 0 101.979 64.37 156.888 84.101 171.289 7.236 5.276 17.573.564 18.209-8.431 4.149-57.552 65.72-68.724 94.189-70.79v142.65c0 4.142 3.358 7.5 7.5 7.5s7.5-3.358 7.5-7.5v-129.946h45v172.227c0 9.098-7.401 16.5-16.5 16.5h-12c-9.098 0-16.5-7.402-16.5-16.5v-10.423c0-4.142-3.358-7.5-7.5-7.5s-7.5 3.358-7.5 7.5v10.423c0 7.269 2.475 13.97 6.627 19.306-6.927 3.84-11.627 11.228-11.627 19.694 0 12.407 10.093 22.5 22.5 22.5h40c12.406 0 22.5-10.094 22.5-22.5 0-8.465-4.7-15.853-11.627-19.693 4.151-5.336 6.627-12.038 6.627-19.306v-184.932c28.47 2.066 90.04 13.237 94.188 70.78.633 8.968 10.938 13.742 18.214 8.44 19.729-14.4 84.098-69.31 84.098-171.287s-64.368-156.888-84.102-171.291zm-155.897 31.582h12c9.099 0 16.5 7.402 16.5 16.5v20.931h-45v-20.931c0-9.098 7.402-16.5 16.5-16.5zm-124.122 256.974c-18.078-25.192-36.931-64.193-36.931-117.265s18.852-92.072 36.929-117.264c8.642 11.08 20.533 20.131 35.471 26.873 20.622 9.307 42.625 12.398 57.153 13.37v154.051c-34.142 2.271-71.589 13.267-92.622 40.235zm107.622-27.493v-177.049h45v177.049zm42.5 233.726h-40c-4.136 0-7.5-3.365-7.5-7.5 0-4.136 3.364-7.5 7.5-7.5h40c4.136 0 7.5 3.365 7.5 7.5 0 4.136-3.364 7.5-7.5 7.5zm125.977-168.085c-1.236-8.794-3.692-16.967-7.325-24.46 4.98-6.517 9.598-13.34 13.76-20.339 2.118-3.56.949-8.163-2.611-10.28-3.558-2.117-8.161-.948-10.279 2.611-2.905 4.883-6.048 9.675-9.394 14.324-21.026-26.961-58.466-37.967-92.628-40.241v-154.05c14.528-.971 36.531-4.063 57.152-13.37 14.937-6.741 26.828-15.792 35.471-26.873 18.078 25.191 36.93 64.191 36.93 117.264 0 26.618-4.698 51.972-13.965 75.358-1.525 3.851.359 8.209 4.21 9.735.906.359 1.841.529 2.761.529 2.985 0 5.808-1.795 6.975-4.739 9.966-25.152 15.02-52.365 15.02-80.883 0-60.556-22.921-104.121-43.402-130.954 3.632-7.493 6.089-15.666 7.326-24.46 22.206 17.699 73.022 67.825 73.022 155.414 0 87.596-50.821 137.721-73.023 155.414z"/></svg>