<svg id="Capa_1" enable-background="new 0 0 512 512" height="512" viewBox="0 0 512 512" width="512" xmlns="http://www.w3.org/2000/svg"><path d="m412.07 329.862c-3.044-2.807-7.789-2.614-10.598.431l-95.451 103.543c-22.347-18.79-41.653-39.994-56.757-62.471-2.31-3.438-6.969-4.351-10.408-2.042-3.438 2.311-4.352 6.97-2.041 10.408 15.76 23.453 35.833 45.559 59.031 65.144l-8.301 9.005c-47.237-40.432-110.042-95.91-110.042-197.883 0-50.119 15.156-94.054 46.335-134.312 2.536-3.275 1.938-7.986-1.338-10.522-3.274-2.537-7.986-1.938-10.522 1.337-31.73 40.971-47.919 85.53-49.368 136h-60.928c-.008-.004-.015-.009-.022-.013l-33.892-19.524c-6.138-3.536-13.663-3.923-20.136-1.034l-41.413 18.487c-3.777 1.686-6.218 5.447-6.219 9.581 0 4.134 2.44 7.895 6.218 9.582l41.411 18.492c6.499 2.902 14.026 2.488 20.142-1.035l33.888-19.529c.004-.002.008-.005.012-.007h60.939c1.313 45.935 14.769 86.775 41.029 124.628 22.887 32.993 51.601 57.852 75.028 77.896-.123 2.163.688 4.361 2.405 5.944 1.401 1.292 3.161 1.948 4.927 1.984 1.706 2.965 2.749 6.36 3.028 9.984 1.214 15.777 14.285 28.064 30.137 28.064 7.442 0 14.671-2.723 20.235-7.706 14.507-12.992 13.252-36.288-2.911-47.563-1.405-1.09-8.216-5.392-18.746-13.478l94.76-102.794c2.807-3.044 2.614-7.79-.432-10.597zm-351.789-59.823c-1.993 1.147-4.438 1.273-6.536.335l-32.193-14.377 32.194-14.372c2.102-.938 4.542-.812 6.533.334l24.368 14.037zm267.474 198.891c8.329 5.668 9.027 17.571 1.637 24.19-3.272 2.93-7.508 4.276-11.929 3.786-7.243-.806-12.913-6.745-13.482-14.122-.508-6.602-2.597-12.77-6.039-18.052l9.594-10.407c5.5 4.257 11.997 9.026 20.219 14.605z"/><path d="m510.503 279.689-14.375-23.688 14.374-23.686c1.934-3.186 2-7.182.173-10.43-1.828-3.248-5.278-5.266-9.006-5.266h-47.613l-136.302-147.858c11.011-8.478 17.177-12.293 18.734-13.5 16.173-11.283 17.413-34.579 2.903-47.565-6.398-5.727-14.994-8.466-23.579-7.508-14.401 1.588-25.665 13.314-26.785 27.878-.279 3.624-1.323 7.018-3.033 9.983-1.764.037-3.523.693-4.923 1.983-1.715 1.581-2.526 3.776-2.405 5.936-14.112 12.074-29.937 25.717-45.295 41.795-2.86 2.996-2.752 7.743.243 10.604 2.996 2.861 7.743 2.752 10.605-.243 14.532-15.214 29.703-28.35 43.322-40.008l8.324 9.03c-17.812 15.074-31.226 29.453-40.357 40.328-38.741 46.14-58.385 96.11-58.385 148.522v.005c.001 32.547 7.761 64.599 23.065 95.266 1.313 2.631 3.963 4.153 6.717 4.152 1.125 0 2.268-.254 3.343-.791 3.707-1.85 5.212-6.354 3.362-10.06-13.076-26.2-20.239-53.436-21.337-81.069h212.437l15.985 24.243-17.309 18.777c-2.808 3.046-2.614 7.791.432 10.598 1.441 1.329 3.264 1.985 5.081 1.985 2.022 0 4.038-.813 5.517-2.417l19.638-21.304h47.614c3.728 0 7.178-2.018 9.006-5.266 1.828-3.246 1.761-7.242-.171-10.426zm-27.371-31.188h-29.078c-.013 0-.026 0-.039 0h-11.338l11.132-16.882h39.568zm-185.193-201.236c3.444-5.281 5.534-11.448 6.043-18.047.568-7.383 6.235-13.322 13.483-14.121 4.417-.495 8.652.85 11.924 3.777 7.391 6.615 6.701 18.517-1.633 24.188-7.667 5.182-14.663 10.313-20.214 14.62zm8.103 30.922 134.654 146.071-15.985 24.242h-212.442c3.082-79.237 54.501-137.292 93.773-170.313zm147.768 202.196-11.132-16.882h40.455l10.245 16.882z"/></svg>