<svg id="Capa_1" enable-background="new 0 0 512 512" height="512" viewBox="0 0 512 512" width="512" xmlns="http://www.w3.org/2000/svg"><path d="m490.268 273.874 10.876-47.187c2.296-9.957-9.385-17.202-17.229-10.633-6.805 5.699-17.373 13.306-29.076 17.184-8.514 2.817-14.678 9.039-17.357 17.521-2.982 9.437-1.171 20.919 4.507 28.571 3.084 4.158 2.428 9.703-1.494 12.623-4.381 3.262-9.857 4.916-16.276 4.916-11.147 0-17.201-24.41-18.476-48.945 10.702 1.045 19.472-2.457 24.54-9.997 4.917-7.322 1.886-19.148-11.186-43.63-1.952-3.657-6.494-5.039-10.149-3.083-3.653 1.955-5.032 6.504-3.079 10.161 11.019 20.64 11.729 27.023 11.641 28.618-3.289 4.15-10.27 3.254-14.219 2.322-6.629-1.564-12.907 3.545-12.753 10.334.466 20.817 4.68 69.235 33.681 69.235 9.716 0 18.204-2.653 25.229-7.884 10.486-7.81 12.543-22.894 4.583-33.624-2.444-3.296-4.002-9.537-2.248-15.089 1.224-3.871 3.836-6.493 7.768-7.794 9.071-3.007 17.416-7.763 24.291-12.52l-23.342 101.266c-.003.016-.007.031-.011.047l-6.377 27.666h-396.224l-6.377-27.666c-.003-.016-.007-.031-.011-.047l-23.341-101.264c6.875 4.757 15.221 9.514 24.296 12.521 3.93 1.3 6.543 3.922 7.767 7.792 1.754 5.551.196 11.792-2.249 15.088-7.963 10.731-5.907 25.816 4.581 33.626 7.025 5.231 15.514 7.884 25.229 7.884 28.997 0 33.221-48.417 33.69-69.236.152-6.805-6.141-11.895-12.752-10.334-3.95.934-10.928 1.83-14.215-2.314-.387-9.727 21.767-46.786 27.079-55.928 4.595-7.906 9-15.487 12.433-21.9 7.717 10.736 20.451 31.324 20.451 50.24 0 10.561 1.105 22.729 3.112 34.264.711 4.085 4.599 6.82 8.676 6.108 4.08-.711 6.813-4.6 6.102-8.685-1.863-10.71-2.89-21.964-2.89-31.687 0-27.085-19.451-54.498-27.814-65.028-2.297-2.89-5.85-4.374-9.518-3.966-3.661.407-6.807 2.633-8.413 5.955-3.338 6.9-9.054 16.736-15.104 27.149-23.601 40.612-33.947 60.895-26.892 71.404 5.063 7.541 13.83 11.047 24.539 9.997-1.279 24.535-7.338 48.945-18.484 48.945-6.419 0-11.896-1.654-16.275-4.916-3.923-2.921-4.578-8.466-1.493-12.624 5.68-7.654 7.491-19.136 4.509-28.572-2.68-8.482-8.846-14.704-17.357-17.519-11.707-3.88-22.275-11.487-29.08-17.185-7.862-6.585-19.521.691-17.229 10.633l10.876 47.187c-12.712 4.863-21.734 19.757-21.734 37.832 0 22.162 13.533 39.522 30.81 39.522 2.89 0 5.713-.494 8.415-1.458l3.441 14.927c-6.34 2.031-10.942 7.987-10.942 14.998v13.561c0 8.681 7.055 15.743 15.727 15.743h304.165c4.143 0 7.5-3.362 7.5-7.508s-3.357-7.508-7.5-7.508h-304.166c-.4 0-.727-.327-.727-.727v-13.561c0-.401.326-.727.727-.727h417.1c.4 0 .727.327.727.727v13.561c0 .401-.326.727-.727.727h-80.32c-4.143 0-7.5 3.362-7.5 7.508s3.357 7.508 7.5 7.508h80.319c8.672 0 15.727-7.062 15.727-15.743v-13.561c0-7.012-4.602-12.967-10.942-14.998l3.441-14.927c2.702.964 5.525 1.458 8.415 1.458 17.276 0 30.81-17.36 30.81-39.522 0-18.075-9.022-32.969-21.732-37.832zm-459.458 62.338c-8.569 0-15.81-11.223-15.81-24.506 0-10.223 4.298-19.232 10.189-22.831l10.606 46.013c-1.422.77-3.1 1.324-4.985 1.324zm450.38 0c-1.885 0-3.563-.554-4.985-1.325l10.606-46.013c5.891 3.599 10.189 12.609 10.189 22.831 0 13.284-7.24 24.507-15.81 24.507z"/><path d="m166.889 269.738c5.357 12.156 12.008 19.075 19.771 20.566 10.468 2.004 21.615-3.269 29.917-10.142 14.634-12.115 23.371-31.203 23.371-51.061v-14.205c0-8.883-9.704-14.339-17.257-9.737-2.334 1.421-5.666 2.172-9.637 2.172-9.925 0-16.534-3.054-16.534-17.956 0-.987.764-6.778 15.839-23.927 10.021-11.398 23.087-24.138 33.586-34.374 3.693-3.601 7.066-6.889 10.06-9.869 2.988 2.977 6.377 6.282 10.088 9.9 10.493 10.233 23.553 22.969 33.564 34.36 15.062 17.137 15.824 22.925 15.824 23.911 0 14.903-6.609 17.956-16.534 17.956-4.025 0-7.267-.731-9.635-2.174-7.566-4.609-17.259.868-17.259 9.737v14.207c0 19.858 8.737 38.946 23.371 51.061 9.894 8.19 20.797 11.886 29.922 10.141 24.088-4.626 32.195-62.292 32.195-87.887 0-18.917 12.728-39.501 20.442-50.237 3.398 6.351 7.729 13.8 12.244 21.57 2.083 3.584 6.675 4.8 10.254 2.714 3.58-2.085 4.794-6.681 2.711-10.265-5.955-10.247-11.581-19.927-14.916-26.823-1.608-3.322-4.755-5.548-8.417-5.953-3.664-.405-7.22 1.079-9.514 3.969-8.36 10.527-27.805 37.937-27.805 65.025 0 15.517-2.587 34.21-6.751 48.784-5.216 18.251-10.961 23.912-13.266 24.355-3.414.655-10.066-.776-17.542-6.965-11.227-9.294-17.93-24.057-17.93-39.489v-8.552c3.545 1.196 7.524 1.799 11.894 1.799 20.335 0 31.534-11.71 31.534-32.972 0-15.233-23.37-39.234-53.922-69.027-13.851-13.507-13.954-13.844-15.223-15.126-1.408-1.422-3.325-2.223-5.326-2.223s-3.918.8-5.326 2.223c-1.755 1.767-1.691 1.918-15.204 15.094-30.573 29.807-53.96 53.819-53.96 69.059 0 21.263 11.199 32.972 31.534 32.972 4.37 0 8.349-.603 11.894-1.797v8.551c0 15.432-6.703 30.195-17.93 39.489-7.476 6.188-14.123 7.62-17.537 6.965-.406-.078-4.106-1.074-8.867-11.879-1.673-3.793-6.101-5.513-9.89-3.839-3.788 1.673-5.505 6.105-3.833 9.899z"/><path d="m224.707 307.295c0 21.79 14.038 39.517 31.293 39.517s31.293-17.727 31.293-39.517-14.038-39.517-31.293-39.517-31.293 17.727-31.293 39.517zm31.293-24.501c8.832 0 16.293 11.22 16.293 24.501s-7.461 24.501-16.293 24.501-16.293-11.22-16.293-24.501 7.461-24.501 16.293-24.501z"/><path d="m279.361 171.403c0-16.475-10.262-29.381-23.361-29.381s-23.361 12.906-23.361 29.381 10.261 29.381 23.361 29.381 23.361-12.906 23.361-29.381zm-31.722 0c0-8.222 4.414-14.365 8.361-14.365s8.361 6.143 8.361 14.365-4.414 14.365-8.361 14.365-8.361-6.144-8.361-14.365z"/></svg>