<svg id="Capa_1" enable-background="new 0 0 512 512" height="512" viewBox="0 0 512 512" width="512" xmlns="http://www.w3.org/2000/svg"><path d="m32.736 212.149c4.11-.515 7.025-4.265 6.51-8.375-6.069-48.427-6.082-92.131-5.51-114.505l222.269-74.192 86.066 28.728c3.927 1.311 8.177-.812 9.489-4.74 1.312-3.929-.811-8.177-4.74-9.489l-86.542-28.886c-2.756-.92-5.792-.92-8.548 0l-223.74 74.683c-5.363 1.791-9.07 6.793-9.223 12.447-.61 22.466-.694 67.646 5.593 117.82.476 3.793 3.706 6.568 7.433 6.568.311 0 .626-.019.943-.059z"/><path d="m493.24 87.821c-.153-5.655-3.859-10.657-9.222-12.448l-106.845-35.664c-3.926-1.309-8.178.811-9.489 4.74-1.312 3.929.811 8.177 4.74 9.489l105.848 35.331c1.242 48.762-.172 207.829-66.006 282.846-82.369 93.847-146.192 122.73-156.263 124.827-10.073-2.097-73.903-30.979-156.263-124.827-26.054-29.685-44.821-75.821-55.779-137.128-.729-4.078-4.632-6.796-8.702-6.064-4.078.729-6.793 4.625-6.064 8.702 11.445 64.037 31.387 112.614 59.27 144.383 47.302 53.899 87.679 85.7 113.222 102.885 26.17 17.607 47.517 27.107 54.317 27.107 6.799 0 28.144-9.5 54.311-27.106 25.542-17.185 65.919-48.985 113.226-102.885 69.911-79.663 71.023-245.315 69.699-294.188z"/><path d="m368.233 375.789c-2.874 2.983-2.785 7.731.198 10.605 1.455 1.402 3.33 2.099 5.202 2.099 1.966 0 3.931-.769 5.403-2.297 7.646-7.937 15.034-15.961 21.96-23.85 20.374-23.217 36.183-58.349 46.989-104.422.002-.01.005-.02.007-.03 12.9-54.912 15.57-111.354 15.539-149.027 0-5.136-3.279-9.68-8.156-11.304l-196.997-65.751c-.022-.007-.045-.014-.067-.021-.043-.014-.087-.028-.13-.041-.031-.009-.062-.018-.093-.027-.039-.011-.079-.023-.119-.034-.035-.01-.071-.018-.106-.027s-.071-.018-.107-.027c-.039-.009-.078-.018-.117-.027-.032-.007-.065-.015-.097-.021-.04-.008-.079-.016-.119-.024-.033-.006-.066-.013-.1-.019-.04-.007-.079-.013-.119-.02-.033-.005-.065-.011-.098-.016-.041-.006-.082-.011-.122-.017-.032-.004-.064-.009-.097-.012-.04-.005-.08-.009-.12-.013-.034-.003-.067-.007-.101-.01-.037-.003-.075-.006-.112-.009s-.073-.005-.11-.008c-.037-.002-.073-.004-.11-.005-.037-.002-.074-.003-.112-.004-.033-.001-.067-.001-.1-.002-.042-.001-.083-.001-.124-.001-.03 0-.06.001-.091.001-.044.001-.088.001-.132.003-.027.001-.053.002-.08.003-.048.002-.096.004-.145.007-.023.001-.045.003-.068.005-.051.004-.102.007-.153.012-.021.002-.043.004-.064.006-.052.005-.104.011-.157.017-.019.002-.038.005-.057.007-.054.007-.108.014-.162.022-.018.003-.035.006-.053.008-.055.009-.11.018-.165.028-.017.003-.034.007-.052.01-.054.01-.108.021-.162.032-.021.004-.042.009-.063.014-.051.011-.101.023-.152.035-.023.005-.045.011-.068.017-.048.012-.096.024-.144.037-.025.007-.05.014-.074.021-.047.013-.094.027-.14.041-.024.007-.047.015-.071.023-.039.012-.077.024-.116.037l-196.995 65.748c-4.881 1.626-8.16 6.169-8.16 11.299-.031 37.679 2.639 94.121 15.539 149.033.002.01.005.02.007.03 10.803 46.062 26.616 81.195 46.999 104.422 37.931 43.219 95.138 96.803 141.94 117.579.003.001.006.003.01.004.057.025.114.049.171.073.003.001.007.003.01.004.054.022.107.043.161.064.009.004.018.007.027.01.114.043.228.083.343.121.012.004.023.008.035.011.112.036.225.069.339.1.015.004.03.008.045.012.052.014.104.027.156.039.004.001.009.002.013.003.056.013.111.026.167.037.017.004.034.007.052.011.042.009.084.017.127.025.016.003.031.006.047.009.053.01.107.019.161.027.018.003.035.005.053.008.042.006.083.012.125.018.017.002.033.005.05.007.054.007.108.013.162.019.017.002.033.003.05.005.041.004.083.008.124.011.018.002.036.003.055.004.055.004.111.008.166.011.009 0 .019.001.029.001.049.002.097.004.146.006.017 0 .033.001.05.001.056.001.112.002.168.002h.006c.056 0 .112-.001.168-.002.017 0 .033-.001.05-.001.049-.001.098-.003.147-.006.009 0 .018-.001.027-.001.056-.003.112-.007.167-.011.017-.001.035-.003.052-.004.043-.004.085-.008.128-.012.016-.001.031-.003.047-.005.055-.006.11-.012.165-.019.015-.002.029-.004.044-.006.044-.006.089-.012.133-.019.016-.002.032-.005.048-.007.055-.009.11-.018.165-.028.012-.002.024-.005.037-.007.046-.009.092-.018.137-.027.015-.003.031-.006.046-.01.057-.012.114-.025.171-.039.001 0 .002 0 .003-.001.056-.013.111-.027.167-.042.014-.004.027-.007.041-.011.115-.031.229-.064.342-.101.011-.003.021-.007.032-.01.116-.038.231-.078.345-.121.009-.003.018-.007.027-.01.054-.021.108-.042.161-.064.003-.001.007-.003.01-.004.057-.024.114-.048.171-.073.003-.001.006-.003.009-.004 34.611-15.363 71.878-47.059 97.046-70.944 3.005-2.851 3.129-7.598.277-10.603-2.851-3.005-7.598-3.128-10.603-.277-21.719 20.611-52.634 47.185-82.264 62.955v-113.055c7.192-.921 13.901-2.953 18.762-4.732 5.885-2.153 9.476-8 8.735-14.22l-5.158-43.209 43.218 5.153c6.229.748 12.068-2.852 14.219-8.738 1.762-4.818 3.773-11.452 4.704-18.574h83.138c-10.095 39.114-24.004 68.95-41.399 88.773-6.773 7.715-14.003 15.567-21.489 23.338zm-119.73-326.453v114.662c-7.188.92-13.893 2.95-18.753 4.726-5.886 2.152-9.479 8-8.738 14.219l5.153 43.216-43.218-5.152c-6.224-.74-12.07 2.851-14.221 8.737-1.791 4.899-3.841 11.676-4.75 18.934h-86.678c-11.199-50.607-13.749-102.08-13.821-137.587zm-126.208 303.116c-17.404-19.833-31.317-49.668-41.41-88.774h83.138c.931 7.121 2.942 13.755 4.703 18.573 2.151 5.886 8.007 9.475 14.22 8.738l43.219-5.153-5.153 43.211c-.741 6.218 2.85 12.065 8.734 14.217 4.859 1.779 11.566 3.811 18.757 4.732v113.056c-42.495-22.621-92.187-69.837-126.208-108.6zm207.308-76.504-42.46-5.063c-9.399-1.118-17.376 6.844-16.252 16.254l5.068 42.452c-14.787 5.16-25.102 5.166-39.903 0l5.063-42.454c1.121-9.406-6.854-17.373-16.253-16.252l-42.461 5.063c-5.155-14.782-5.161-25.103 0-39.9l42.461 5.062c9.388 1.124 17.375-6.839 16.253-16.252l-5.063-42.458c14.782-5.153 25.102-5.162 39.903 0l-5.068 42.456c-1.121 9.395 6.843 17.377 16.253 16.254l42.46-5.062c5.153 14.78 5.16 25.102-.001 39.9zm18.427-27.27c-.909-7.258-2.958-14.035-4.75-18.933-2.151-5.887-8.001-9.485-14.22-8.739l-43.219 5.152 5.159-43.214c.742-6.221-2.851-12.068-8.738-14.221-4.86-1.777-11.566-3.807-18.758-4.727v-114.66l185.026 61.754c-.072 35.502-2.621 86.977-13.821 137.587h-86.679z"/></svg>