<svg id="Capa_1" enable-background="new 0 0 512 512" height="512" viewBox="0 0 512 512" width="512" xmlns="http://www.w3.org/2000/svg"><path d="m441 167.423c4.143 0 7.5-3.358 7.5-7.5v-134.632c0-13.945-11.346-25.291-25.291-25.291h-74.418c-13.945 0-25.291 11.346-25.291 25.291v12.992h-30v-6.783c0-17.369-14.131-31.5-31.5-31.5h-12c-17.369 0-31.5 14.131-31.5 31.5v6.783h-30v-12.992c0-13.945-11.346-25.291-25.291-25.291h-74.418c-13.945 0-25.291 11.346-25.291 25.291v6.324c0 4.142 3.357 7.5 7.5 7.5s7.5-3.358 7.5-7.5v-6.324c0-5.674 4.616-10.291 10.291-10.291h74.418c5.675 0 10.291 4.617 10.291 10.291v184.418c0 5.674-4.616 10.291-10.291 10.291h-74.418c-5.675 0-10.291-4.617-10.291-10.291v-145.94c0-4.142-3.357-7.5-7.5-7.5s-7.5 3.358-7.5 7.5v145.94c0 13.945 11.346 25.291 25.291 25.291h74.418c13.945 0 25.291-11.346 25.291-25.291v-16.426h30v190.486c0 4.142 3.357 7.5 7.5 7.5s7.5-3.358 7.5-7.5v-190.486h45v257.217c0 9.098-7.402 16.5-16.5 16.5h-12c-9.098 0-16.5-7.402-16.5-16.5v-34.526c0-4.142-3.357-7.5-7.5-7.5s-7.5 3.358-7.5 7.5v34.526c0 7.269 2.475 13.97 6.627 19.307-6.927 3.84-11.627 11.228-11.627 19.693 0 12.407 10.094 22.5 22.5 22.5h40c12.406 0 22.5-10.093 22.5-22.5 0-8.466-4.7-15.854-11.627-19.693 4.151-5.336 6.627-12.038 6.627-19.307v-257.217h30v16.426c0 13.945 11.346 25.291 25.291 25.291h74.418c13.945 0 25.291-11.346 25.291-25.291v-17.632c0-4.142-3.357-7.5-7.5-7.5s-7.5 3.358-7.5 7.5v17.632c0 5.674-4.616 10.291-10.291 10.291h-74.418c-5.675 0-10.291-4.617-10.291-10.291v-184.418c0-5.674 4.616-10.291 10.291-10.291h74.418c5.675 0 10.291 4.617 10.291 10.291v134.632c0 4.142 3.357 7.5 7.5 7.5zm-165 329.577h-40c-4.136 0-7.5-3.364-7.5-7.5s3.364-7.5 7.5-7.5h40c4.136 0 7.5 3.364 7.5 7.5s-3.364 7.5-7.5 7.5zm-42.5-465.5c0-9.098 7.402-16.5 16.5-16.5h12c9.098 0 16.5 7.402 16.5 16.5v6.783h-45zm-45 146.783v-125h135v125c-32.984 0-123.008 0-135 0z"/><path d="m256 61.283c-12.958 0-23.5 10.542-23.5 23.5s10.542 23.5 23.5 23.5 23.5-10.542 23.5-23.5-10.542-23.5-23.5-23.5zm0 32c-4.687 0-8.5-3.813-8.5-8.5s3.813-8.5 8.5-8.5 8.5 3.813 8.5 8.5-3.813 8.5-8.5 8.5z"/><path d="m256 123.283c-12.958 0-23.5 10.542-23.5 23.5s10.542 23.5 23.5 23.5 23.5-10.542 23.5-23.5-10.542-23.5-23.5-23.5zm0 32c-4.687 0-8.5-3.813-8.5-8.5s3.813-8.5 8.5-8.5 8.5 3.813 8.5 8.5-3.813 8.5-8.5 8.5z"/></svg>