<svg id="Capa_1" enable-background="new 0 0 512 512" height="512" viewBox="0 0 512 512" width="512" xmlns="http://www.w3.org/2000/svg"><path d="m439.46 232.672c0-11.129-9.053-20.183-20.18-20.183h-107.95c-15.164 0-27.5 12.338-27.5 27.504v122.367c0 15.375-12.484 27.884-27.83 27.884-15.377 0-27.83-12.469-27.83-27.884v-122.367c0-15.166-12.336-27.504-27.5-27.504h-40.696c-4.142 0-7.5 3.358-7.5 7.501s3.358 7.501 7.5 7.501h40.696c6.893 0 12.5 5.608 12.5 12.502v122.367c0 23.682 19.135 42.886 42.83 42.886 23.617 0 42.83-19.238 42.83-42.886v-122.367c0-6.894 5.607-12.502 12.5-12.502h107.95c2.856 0 5.18 2.324 5.18 5.181 0 17.956-14.584 32.564-32.51 32.564h-32.03c-15.169 0-27.51 12.351-27.51 27.534v155.214c0 4.143 3.358 7.501 7.5 7.501s7.5-3.358 7.5-7.501v-155.214c0-6.91 5.612-12.531 12.51-12.531h32.03c26.197-.001 47.51-21.339 47.51-47.567z"/><path d="m422.879 101.584c-2.985-2.873-7.733-2.782-10.604.203-2.873 2.985-2.781 7.733.203 10.606 43.388 41.762 47.022 109.015 47.022 168.775 0 94.665-26.392 192.383-33.146 215.834l-78.943.06v-16.919c0-4.143-3.358-7.501-7.5-7.501s-7.5 3.358-7.5 7.501v16.925h-152.821v-204.298c0-15.182-12.341-27.534-27.51-27.534h-32.03c-17.926 0-32.51-14.608-32.51-32.564 0-2.857 2.324-5.181 5.18-5.181h34.844c4.142 0 7.5-3.358 7.5-7.501s-3.358-7.501-7.5-7.501h-34.844c-11.127 0-20.18 9.054-20.18 20.183 0 26.228 21.313 47.567 47.51 47.567h32.03c6.898 0 12.51 5.621 12.51 12.531v204.292l-78.944-.06c-6.755-23.436-33.146-121.099-33.146-215.834 0-101.237 11.645-193.559 150-211.897v37.718c0 29.504 24 53.507 53.5 53.507s53.5-24.003 53.5-53.507v-37.714c31.548 4.207 58.065 12.577 78.914 24.922 1.199.71 2.515 1.048 3.813 1.048 2.563 0 5.061-1.315 6.461-3.681 2.11-3.565.932-8.166-2.633-10.276-23.032-13.638-52.125-22.758-86.555-27.142v-36.644c0-9.65-7.851-17.502-17.5-17.502h-72c-9.649 0-17.5 7.852-17.5 17.502v36.641c-68.489 8.679-114.076 35.38-139.243 81.501-23.767 43.554-25.757 97.953-25.757 145.524 0 110.336 35.024 224.416 35.377 225.555.974 3.136 3.874 5.274 7.157 5.277h351.932c3.283-.002 6.183-2.14 7.157-5.277.354-1.139 35.377-115.219 35.377-225.555 0-62.848-3.989-133.738-51.621-179.584zm-202.879-86.582h12.314v71.95c0 4.143 3.358 7.501 7.5 7.501s7.5-3.358 7.5-7.501v-71.95h17.372v71.95c0 4.143 3.358 7.501 7.5 7.501s7.5-3.358 7.5-7.501v-71.95h12.314c1.378 0 2.5 1.122 2.5 2.5v43.254.103 46.13c0 21.232-17.271 38.505-38.5 38.505s-38.5-17.273-38.5-38.505v-46.142c0-.029 0-.057 0-.086v-43.259c0-1.378 1.122-2.5 2.5-2.5z"/><path d="m139.5 332.715c4.142 0 7.5-3.358 7.5-7.501v-10.001c0-4.143-3.358-7.501-7.5-7.501s-7.5 3.358-7.5 7.501v10.001c0 4.142 3.358 7.501 7.5 7.501z"/><path d="m132 375.881c0 4.143 3.358 7.501 7.5 7.501s7.5-3.358 7.5-7.501v-10.001c0-4.143-3.358-7.501-7.5-7.501s-7.5 3.358-7.5 7.501z"/><path d="m132 426.549c0 4.143 3.358 7.501 7.5 7.501s7.5-3.358 7.5-7.501v-10.001c0-4.143-3.358-7.501-7.5-7.501s-7.5 3.358-7.5 7.501z"/><path d="m132 477.216c0 4.143 3.358 7.501 7.5 7.501s7.5-3.358 7.5-7.501v-10.001c0-4.143-3.358-7.501-7.5-7.501s-7.5 3.358-7.5 7.501z"/><path d="m380 315.212c0-4.143-3.358-7.501-7.5-7.501s-7.5 3.358-7.5 7.501v10.001c0 4.143 3.358 7.501 7.5 7.501s7.5-3.358 7.5-7.501z"/><path d="m380 365.88c0-4.143-3.358-7.501-7.5-7.501s-7.5 3.358-7.5 7.501v10.001c0 4.143 3.358 7.501 7.5 7.501s7.5-3.358 7.5-7.501z"/><path d="m380 416.548c0-4.143-3.358-7.501-7.5-7.501s-7.5 3.358-7.5 7.501v10.001c0 4.143 3.358 7.501 7.5 7.501s7.5-3.358 7.5-7.501z"/><path d="m372.5 459.714c-4.142 0-7.5 3.358-7.5 7.501v10.001c0 4.143 3.358 7.501 7.5 7.501s7.5-3.358 7.5-7.501v-10.001c0-4.143-3.358-7.501-7.5-7.501z"/></svg>