<svg id="Capa_1" enable-background="new 0 0 512 512" height="512" viewBox="0 0 512 512" width="512" xmlns="http://www.w3.org/2000/svg"><path d="m351.062 35.497c-1.6-3.274-4.879-5.324-8.329-5.243-3.346.086-6.26 2.098-7.603 5.249-3.083 7.226-9.967 14.015-14.608 17.21 2.138-16.821 7.538-31.754 11.907-38.024 1.994-2.862 2.229-6.561.615-9.653-1.623-3.106-4.81-5.036-8.318-5.036-31.712 0-49.473 11.223-61.225 18.649-3.432 2.169-10.002 6.429-14.091 6.914-.229-1.34.497-4.063 5.74-9.205 2.843-2.788 3.641-6.942 2.034-10.584-1.608-3.644-5.225-5.858-9.194-5.634-30.458 1.689-59.114 16.865-76.654 40.596-2.462 3.331-1.756 8.027 1.575 10.489 3.331 2.461 8.027 1.757 10.492-1.574 12.503-16.917 31.712-28.724 52.941-32.951-5.063 10.733.171 20.61 7.745 23.139 8.976 2.993 19.48-3.486 27.427-8.509 9.548-6.034 22.185-14.019 43.551-15.913-4.094 9.233-7.953 22.335-9.646 37.188-1.522 13.373 9.806 20.801 21.534 13.799 4.398-2.626 9.772-7.185 14.373-12.792 3.526 17.978-.701 41.46-11.389 58.573-6.5 10.407-18.05 22.815-36.155 22.815h-90.779c-11.37 0-33.501-15.711-33.501-44.511 0-4.943.568-9.9 1.687-14.733.935-4.035-1.58-8.064-5.617-8.999-4.027-.933-8.065 1.579-9 5.615-1.376 5.941-2.074 12.037-2.074 18.117 0 25.229 13.227 43.795 28.068 53.004l8.994 91.738c.376 3.84 3.606 6.769 7.466 6.769h3.906l3.985 68.597c-11.431 1.059-20.412 10.702-20.412 22.403 0 12.407 10.096 22.5 22.505 22.5h.523l8.682 149.435c.231 3.966 3.515 7.065 7.489 7.065h60.634c3.974 0 7.259-3.099 7.489-7.065l8.682-149.435h.523c12.409 0 22.505-10.093 22.505-22.5 0-11.701-8.98-21.344-20.412-22.403l3.987-68.597h3.906c3.859 0 7.09-2.928 7.466-6.769l2.239-22.842c.404-4.123-2.611-7.792-6.734-8.196-4.128-.399-7.793 2.611-8.197 6.733l-1.576 16.074h-100.388l-7.549-77h115.484l-2.853 29.112c-.404 4.122 2.611 7.792 6.734 8.196 4.127.41 7.794-2.61 8.197-6.733l3.661-37.344c.203-2.07-.464-4.13-1.837-5.688 5.596-4.611 10.646-10.446 14.998-17.415 15.914-25.478 19.523-61.862 8.397-84.631zm-56.977 206.503-3.979 68.5h-68.163l-3.979-68.5zm8.95 83.5c4.137 0 7.502 3.364 7.502 7.5s-3.365 7.5-7.502 7.5h-47.011c-4.144 0-7.502 3.358-7.502 7.5s3.358 7.5 7.502 7.5h31.46l-8.222 141.5h-46.476l-8.223-141.531c3.828-.341 6.828-3.555 6.828-7.469 0-4.142-3.358-7.5-7.502-7.5h-14.876c-4.137 0-7.502-3.364-7.502-7.5s3.365-7.5 7.502-7.5z"/></svg>