<svg id="Capa_1" enable-background="new 0 0 512 512" height="512" viewBox="0 0 512 512" width="512" xmlns="http://www.w3.org/2000/svg"><path d="m441 291.756c-12.406 0-22.5 10.093-22.5 22.5v45.685h-48v-231.864c0-4.142-3.357-7.5-7.5-7.5s-7.5 3.358-7.5 7.5v231.864h-15v-295.352h15v31.488c0 4.142 3.357 7.5 7.5 7.5s7.5-3.358 7.5-7.5v-31.921c10.305-2.053 18.096-11.167 18.096-22.067 0-12.407-10.094-22.5-22.5-22.5h-17.024c-3.261-11.3-13.698-19.589-26.034-19.589s-22.772 8.289-26.033 19.589h-14.934c-3.26-11.3-13.697-19.589-26.033-19.589s-22.772 8.289-26.033 19.589h-14.934c-3.26-11.3-13.697-19.589-26.033-19.589s-22.772 8.289-26.033 19.589h-17.101c-12.406 0-22.5 10.093-22.5 22.5 0 10.9 7.791 20.014 18.096 22.067v295.786h-48v-45.685c0-12.407-10.094-22.5-22.5-22.5s-22.5 10.093-22.5 22.5v134.128c0 4.142 3.357 7.5 7.5 7.5s7.5-3.358 7.5-7.5v-134.129c0-4.136 3.364-7.5 7.5-7.5s7.5 3.364 7.5 7.5v182.744h-15v-16.615c0-4.142-3.357-7.5-7.5-7.5s-7.5 3.358-7.5 7.5v24.115c0 4.142 3.357 7.5 7.5 7.5h400c4.143 0 7.5-3.358 7.5-7.5v-190.244c0-12.406-10.094-22.5-22.5-22.5zm-284.5 83.185h199v53.529h-199zm0-310.352h15v295.353h-15zm169 295.352h-139v-295.352h139zm-187.096-317.852c0-4.136 3.364-7.5 7.5-7.5h23.545c4.143 0 7.5-3.358 7.5-7.5 0-6.666 5.423-12.089 12.089-12.089s12.089 5.423 12.089 12.089c0 4.142 3.357 7.5 7.5 7.5h27.822c4.143 0 7.5-3.358 7.5-7.5 0-6.666 5.423-12.089 12.089-12.089s12.089 5.423 12.089 12.089c0 4.142 3.357 7.5 7.5 7.5h27.822c4.143 0 7.5-3.358 7.5-7.5 0-6.666 5.423-12.089 12.089-12.089s12.089 5.423 12.089 12.089c0 4.142 3.357 7.5 7.5 7.5h23.469c4.136 0 7.5 3.364 7.5 7.5s-3.364 7.5-7.5 7.5h-220.192c-4.135 0-7.5-3.364-7.5-7.5zm-44.904 332.852h18v91.029c0 4.142 3.357 7.5 7.5 7.5h201.18c4.143 0 7.5-3.358 7.5-7.5s-3.357-7.5-7.5-7.5h-193.68v-83.529h15v61.029c0 4.142 3.357 7.5 7.5 7.5h214c4.143 0 7.5-3.358 7.5-7.5v-61.029h15v83.529h-33.32c-4.143 0-7.5 3.358-7.5 7.5s3.357 7.5 7.5 7.5h40.82c4.143 0 7.5-3.358 7.5-7.5v-91.029h18v122.059h-325zm355 122.059h-15v-182.744c0-4.136 3.364-7.5 7.5-7.5s7.5 3.364 7.5 7.5z"/><path d="m215.132 221.001 20.286-2.418-2.419 20.286c-.597 5.02 2.305 9.74 7.053 11.477 11.417 4.176 20.476 4.182 31.899 0 4.752-1.739 7.651-6.46 7.053-11.483l-2.421-20.281 20.285 2.418c5.017.599 9.743-2.302 11.481-7.055 4.173-11.412 4.176-20.473 0-31.893-1.737-4.752-6.45-7.657-11.481-7.055l-20.285 2.418 2.421-20.284c.599-5.023-2.303-9.745-7.055-11.483-11.412-4.173-20.47-4.174-31.895 0-4.753 1.737-7.654 6.459-7.055 11.482l2.418 20.285-20.285-2.418c-5.026-.595-9.744 2.303-11.482 7.055-4.174 11.412-4.176 20.472 0 31.894 1.739 4.753 6.456 7.655 11.482 7.055zm1.602-30.705 21.295 2.539c3.537.42 6.999-.78 9.513-3.294 2.515-2.514 3.715-5.981 3.294-9.511l-2.539-21.294c5.719-1.624 9.628-1.644 15.409 0l-2.541 21.293c-.421 3.531.779 6.999 3.294 9.513 2.514 2.515 5.983 3.712 9.512 3.294l21.295-2.539c1.639 5.765 1.629 9.675 0 15.408l-21.296-2.539c-3.526-.42-6.998.78-9.512 3.295-2.514 2.514-3.714 5.981-3.293 9.512l2.541 21.292c-5.769 1.641-9.675 1.631-15.41-.001l2.54-21.291c.421-3.531-.779-6.999-3.294-9.513s-5.986-3.714-9.512-3.293l-21.296 2.539c-1.635-5.758-1.632-9.666 0-15.41z"/></svg>