<svg id="Capa_1" enable-background="new 0 0 512 512" height="512" viewBox="0 0 512 512" width="512" xmlns="http://www.w3.org/2000/svg"><path d="m392.052 132.826-36.462-13.618c-9.036-37.041-38.256-66.26-75.296-75.297l-13.617-36.462c-1.69-4.525-5.881-7.449-10.677-7.449-4.797 0-8.987 2.925-10.675 7.448l-13.61 36.441c-12.417 3.012-24.184 8.347-34.796 15.845-3.383 2.39-4.188 7.07-1.798 10.453 2.391 3.384 7.072 4.188 10.453 1.798 14.533-10.268 31.919-15.983 50.426-15.983 48.246 0 87.498 39.252 87.498 87.5 0 17.324-5.048 34.536-15.342 49.508-2.347 3.413-1.481 8.083 1.932 10.429 3.398 2.337 8.072 1.497 10.43-1.931 7.098-10.325 12.177-21.723 15.089-33.718l36.444-13.611c4.525-1.689 7.449-5.88 7.449-10.677s-2.925-8.988-7.448-10.676zm-143.343-91.569 7.291-19.521 7.291 19.523c-2.409-.17-4.84-.257-7.291-.257-2.443 0-4.874.086-7.291.255zm109.534 109.536c.17-2.417.255-4.849.255-7.291 0-2.451-.087-4.883-.257-7.292l19.523 7.292z"/><path d="m307.684 214.113c-15.177 11.131-33.08 16.888-51.684 16.888-48.247 0-87.498-39.252-87.498-87.5 0-17.8 5.308-35.484 16.244-50.795 2.408-3.371 1.627-8.055-1.744-10.462-3.371-2.408-8.055-1.626-10.462 1.744-7.662 10.727-13.101 22.643-16.153 35.229l-36.437 13.608c-4.525 1.689-7.45 5.879-7.45 10.676s2.924 8.988 7.448 10.677l36.462 13.618c7.932 32.515 31.416 59.003 62.09 71.103v176.666c0 4.142 3.358 7.5 7.5 7.5s7.5-3.358 7.5-7.5v-172.051c7.242 1.628 14.772 2.488 22.5 2.488 7.656 0 15.187-.832 22.499-2.465v206.963c0 9.098-7.401 16.5-16.499 16.5h-12c-9.098 0-16.5-7.402-16.5-16.5v-2.116c0-4.142-3.358-7.5-7.5-7.5s-7.5 3.358-7.5 7.5v2.116c0 7.266 2.473 13.964 6.621 19.299-6.923 3.838-11.621 11.231-11.621 19.728 0 12.392 10.081 22.473 22.473 22.473h40.054c12.391 0 22.472-10.081 22.472-22.527 0-8.458-4.698-15.84-11.62-19.674 4.147-5.335 6.62-12.033 6.62-19.298v-211.558c8.128-3.198 15.864-7.459 23.056-12.733 3.34-2.45 4.063-7.143 1.612-10.483-2.447-3.341-7.142-4.063-10.483-1.614zm-173.448-70.611 19.521-7.291c-.169 2.416-.254 4.848-.254 7.291 0 2.451.087 4.883.257 7.292zm141.791 353.498h-40.054c-4.121 0-7.473-3.352-7.473-7.527 0-4.121 3.352-7.473 7.473-7.473h40.054c4.12 0 7.472 3.352 7.472 7.527 0 4.121-3.352 7.473-7.472 7.473z"/><path d="m289.5 143.502c0-18.472-15.028-33.5-33.5-33.5s-33.5 15.028-33.5 33.5 15.028 33.5 33.5 33.5 33.5-15.028 33.5-33.5zm-52 0c0-10.201 8.299-18.5 18.5-18.5s18.5 8.299 18.5 18.5-8.299 18.5-18.5 18.5c-10.201-.001-18.5-8.299-18.5-18.5z"/></svg>