<svg id="Capa_1" enable-background="new 0 0 512 512" height="512" viewBox="0 0 512 512" width="512" xmlns="http://www.w3.org/2000/svg"><path d="m26.75 317.832c2.492 3.3 7.193 3.966 10.504 1.467 3.305-2.496 3.962-7.199 1.467-10.505-4.916-6.511-9.168-13.588-12.637-21.032-13.398-28.774-14.684-60.985-3.622-90.698 11.061-29.711 33.076-53.227 61.991-66.215 23.231-10.436 48.6-13.066 73.367-7.607 29.448 6.489 61.32 3.029 89.749-9.743l90.064-40.472c3.778-1.698 5.464-6.137 3.767-9.915-1.698-3.779-6.138-5.466-9.914-3.768l-90.063 40.472c-25.508 11.46-54.053 14.577-80.375 8.777-27.937-6.159-56.548-3.193-82.74 8.572-32.605 14.647-57.429 41.163-69.901 74.665-12.473 33.505-11.023 69.823 4.083 102.267 3.913 8.399 8.712 16.385 14.26 23.735z"/><path d="m277.685 355.546c0-47.697-38.8-86.501-86.492-86.501s-86.491 38.804-86.491 86.501c0 47.811 38.91 86.501 86.491 86.501 47.692-.001 86.492-38.805 86.492-86.501zm-107.052 68.487 13.279-31.698c4.628.915 9.496.959 14.263.058l13.025 31.803c-6.351 1.854-13.065 2.849-20.007 2.849-7.144.001-14.046-1.052-20.56-3.012zm20.561-90.988c12.458 0 22.497 10.136 22.497 22.5 0 12.317-9.983 22.5-22.497 22.5-12.334 0-22.498-10.036-22.498-22.5 0-12.461 10.149-22.5 22.498-22.5zm42.525-34.942c-5.831 9.861-13.012 18.733-21.409 26.456l13.274-31.685c2.834 1.562 5.551 3.31 8.135 5.229zm28.967 57.443c0 7.145-1.054 14.049-3.013 20.564l-31.694-13.28c.913-4.621.962-9.492.058-14.269l31.801-13.024c1.854 6.352 2.848 13.066 2.848 20.009zm-108.945-1.825c-11.214 2.036-22.617 2.405-34.037 1.1.069-6.884 1.115-13.538 3.007-19.83l31.695 13.28c-.35 1.775-.575 3.595-.665 5.45zm-32.562 16.329c3.965.358 7.926.537 11.881.537.545 0 1.089-.004 1.633-.011l-12.145 4.975c-.527-1.805-.984-3.64-1.369-5.501zm103.894 48.446-13.024-31.8c3.976-2.672 7.415-6.084 10.118-10.038l31.692 13.279c-6.643 12.061-16.668 22.009-28.786 28.559zm29.064-96.833-29.845 12.222c7.928-7.574 14.85-16.081 20.674-25.41 3.526 4.024 6.608 8.446 9.171 13.188zm-42.38-34.603-13.279 31.697c-4.703-.93-9.574-.947-14.267-.059l-13.022-31.804c6.35-1.854 13.063-2.848 20.004-2.848 7.146-.001 14.049 1.053 20.564 3.014zm-54.441 5.534 13.021 31.801c-3.979 2.673-7.42 6.088-10.124 10.046l-31.691-13.279c6.645-12.065 16.672-22.017 28.794-28.568zm-29.068 96.832 31.797-13.025c2.672 3.979 6.085 7.419 10.04 10.123l-13.278 31.695c-12.061-6.645-22.009-16.672-28.559-28.793z"/><path d="m484.522 457h-58.029v-261.568l45.455-20.427c6.266 7.794 17.235 10.71 26.765 6.428 11.319-5.086 16.391-18.434 11.306-29.755l-7.195-16.015c-1.698-3.778-6.135-5.465-9.914-3.768-3.778 1.698-5.464 6.137-3.767 9.915l7.195 16.015c1.696 3.776.004 8.229-3.771 9.925-3.784 1.7-8.224.015-9.924-3.772l-22.626-50.365c-.045-.1-39.571-88.129-39.546-88.029-1.696-3.776-.004-8.229 3.771-9.925 3.778-1.696 8.228-.004 9.924 3.772l41.864 93.192c1.697 3.778 6.134 5.463 9.914 3.768 3.778-1.698 5.464-6.137 3.767-9.915l-41.864-93.192c-5.086-11.32-18.433-16.394-29.752-11.307-9.53 4.283-14.631 14.421-12.971 24.275l-44.456 19.978c-3.778 1.698-5.464 6.137-3.767 9.915 1.697 3.779 6.136 5.465 9.914 3.768l43.794-19.68c6.539 14.556 48.124 107.126 54.531 121.388l-38.646 17.367v-5.489c0-12.407-10.092-22.5-22.498-22.5-12.405 0-22.497 10.093-22.497 22.5v25.709l-80.613 36.22c-14.701 6.606-28.071 15.657-39.829 26.952-19.477-14.645-43.675-23.333-69.863-23.333-59.219 0-108.259 44.423-115.553 101.698-5.602-3.092-10.944-6.63-15.962-10.578-3.255-2.561-7.97-1.998-10.531 1.257s-1.998 7.971 1.257 10.532c7.517 5.914 15.676 11.012 24.311 15.195.58 42.785 24.338 80.074 59.26 99.851h-106.452c-15.151 0-27.477 12.328-27.477 27.52 0 15.152 12.326 27.48 27.477 27.48h456.998c15.151-.002 27.478-12.33 27.478-27.522 0-15.153-12.327-27.48-27.478-27.48zm-80.526-291.003c4.135 0 7.499 3.364 7.499 7.5v283.503h-14.998c0-10.457 0-267.09 0-283.502 0-4.136 3.365-7.501 7.499-7.501zm-96.964 83.112 74.466-33.458v241.349h-133.086c35.357-20.024 59.271-57.998 59.271-101.454 0-32.635-13.487-62.18-35.18-83.35 10.257-9.637 21.843-17.386 34.529-23.087zm-217.329 106.437c0-55.822 45.384-101.501 101.49-101.501 56.318 0 101.49 45.911 101.49 101.501 0 54.933-43.86 99.813-98.396 101.454h-6.187c-54.536-1.642-98.397-46.522-98.397-101.454zm394.819 141.454h-456.998c-6.881 0-12.478-5.599-12.478-12.52 0-6.881 5.598-12.48 12.478-12.48 193.867.068 445.187.002 456.998 0 6.881 0 12.479 5.599 12.479 12.52 0 6.881-5.598 12.48-12.479 12.48z"/></svg>