<svg id="Capa_1" enable-background="new 0 0 512 512" height="512" viewBox="0 0 512 512" width="512" xmlns="http://www.w3.org/2000/svg"><path d="m402.029 274.889c-1.867-3.698-6.378-5.18-10.075-3.314-3.697 1.868-5.181 6.378-3.313 10.076 10.523 20.838 15.859 43.329 15.859 66.849 0 6.73-.454 13.36-1.333 19.86-10.605-4.825-21.171-10.991-32.685-15.656-44.979-18.23-68.745-3.74-91.729 10.273-38.759 23.63-69.448 34.578-107.096 9.412-2.057-1.375-4.117-2.81-6.299-4.328-14.991-10.433-33.251-23.138-57.858-19.756.066-51.045 25.854-97.862 69.012-125.264 26.291-16.693 41.987-45.235 41.987-76.35v-25.191h75v25.188c0 31.053 15.776 59.646 42.2 76.488 13.922 8.872 26.204 19.926 36.507 32.856 2.58 3.24 7.3 3.772 10.539 1.192 3.239-2.582 3.773-7.3 1.191-10.54-11.337-14.228-24.854-26.393-40.175-36.158-22.08-14.072-35.263-37.937-35.263-63.838v-25.965c12.037-2.928 21-13.799 21-26.724 0-15.164-12.337-27.5-27.5-27.5h-.747l5.569-52.244c.81-7.586-5.132-14.255-12.813-14.255h-38.007c-4.143 0-7.5 3.358-7.5 7.5s3.357 7.5 7.5 7.5h35.657l-5.489 51.5h-60.336l-5.489-51.5h3.427c4.143 0 7.5-3.358 7.5-7.5s-3.357-7.5-7.5-7.5h-5.776c-7.628 0-13.629 6.618-12.815 14.255l5.569 52.245h-.748c-15.163 0-27.5 12.336-27.5 27.5 0 12.925 8.963 23.796 21 26.724v25.967c0 25.953-13.095 49.761-35.028 63.687-47.57 30.204-75.971 81.838-75.972 138.121 0 3.058.089 6.113.265 9.159.004.19.015.382.034.573 2.047 33.406 14.566 65.829 35.773 92.214 1.481 1.844 3.656 2.802 5.851 2.802 1.648 0 3.309-.542 4.693-1.655 3.229-2.595 3.742-7.315 1.147-10.544-17.979-22.371-29.084-49.508-31.995-77.678 19.533-3.17 34.248 7.069 48.521 17.003 2.143 1.491 4.358 3.033 6.532 4.486 43.096 28.812 78.851 17.987 123.24-9.075 22.52-13.729 40.309-24.573 78.286-9.179 11.531 4.674 23.358 11.703 35.46 16.888-15.727 64.486-73.863 112.893-142.973 113.501-.426.003-.851.005-1.276.005-34.256 0-67.734-12.131-94.403-34.235-3.188-2.642-7.917-2.201-10.561.988s-2.201 7.917.988 10.561c29.358 24.333 66.231 37.687 103.977 37.687.469 0 .938-.002 1.408-.006 43.366-.381 84.074-17.557 114.626-48.362 30.57-30.825 47.406-71.712 47.406-115.131.001-25.892-5.877-50.658-17.47-73.612zm-204.529-180.889c0-6.893 5.607-12.5 12.5-12.5h92c6.893 0 12.5 5.607 12.5 12.5s-5.607 12.5-12.5 12.5h-92c-6.893 0-12.5-5.607-12.5-12.5z"/><path d="m182.5 314.472c0 17.292 14.068 31.36 31.36 31.36s31.36-14.068 31.36-31.36-14.068-31.36-31.36-31.36-31.36 14.068-31.36 31.36zm47.72 0c0 9.021-7.339 16.36-16.36 16.36s-16.36-7.339-16.36-16.36 7.339-16.36 16.36-16.36 16.36 7.339 16.36 16.36z"/><path d="m273.955 216.959c-14.966 0-27.141 12.175-27.141 27.141 0 14.965 12.175 27.141 27.141 27.141s27.141-12.175 27.141-27.141c-.001-14.965-12.175-27.141-27.141-27.141zm0 39.282c-6.694 0-12.141-5.446-12.141-12.141s5.446-12.141 12.141-12.141 12.141 5.446 12.141 12.141c-.001 6.695-5.447 12.141-12.141 12.141z"/></svg>