<svg id="Capa_1" enable-background="new 0 0 512 512" height="512" viewBox="0 0 512 512" width="512" xmlns="http://www.w3.org/2000/svg"><path d="m287.538 497h-131.038v-113c0-4.142-3.357-7.5-7.5-7.5s-7.5 3.358-7.5 7.5v120.5c0 4.142 3.357 7.5 7.5 7.5h138.538c4.143 0 7.5-3.358 7.5-7.5s-3.357-7.5-7.5-7.5z"/><path d="m286 461.5c4.143 0 7.5-3.358 7.5-7.5v-40.158c0-20.59-16.752-37.342-37.342-37.342h-.316c-20.59 0-37.342 16.751-37.342 37.342v40.158c0 4.142 3.357 7.5 7.5 7.5zm-52.5-47.658c0-12.319 10.022-22.342 22.342-22.342h.316c12.319 0 22.342 10.022 22.342 22.342v32.658h-45z"/><path d="m396.418 315.016-91.953-131.453c-2.374-3.394-7.05-4.222-10.444-1.847-3.395 2.374-4.221 7.05-1.847 10.444l88.098 125.943h-248.545l124.273-177.655 17.833 25.494c2.374 3.394 7.05 4.222 10.444 1.847 3.395-2.374 4.221-7.05 1.847-10.444l-22.624-32.344v-35.379l80.805-27.406c4.197-1.423 7.018-5.356 7.018-9.789.001-4.433-2.819-8.367-7.017-9.791l-80.806-27.406v-7.73c0-4.142-3.357-7.5-7.5-7.5s-7.5 3.358-7.5 7.5v117.501l-132.918 190.015c-2.466 3.524-2.763 8.083-.775 11.897 1.988 3.819 5.9 6.191 10.209 6.191h16.484v19.076c0 4.142 3.357 7.5 7.5 7.5s7.5-3.358 7.5-7.5v-19.076h199.002v163.896h-35.423c-4.143 0-7.5 3.358-7.5 7.5s3.357 7.5 7.5 7.5h42.923c4.143 0 7.5-3.358 7.5-7.5v-171.396h16.484c4.309 0 8.221-2.372 10.209-6.191 1.986-3.814 1.689-8.373-.777-11.897zm-69.95-262.59-62.968 21.356v-42.712z"/></svg>