<svg id="Capa_1" enable-background="new 0 0 512 512" height="512" viewBox="0 0 512 512" width="512" xmlns="http://www.w3.org/2000/svg"><path d="m308.5 52.5c0-28.948-23.551-52.5-52.5-52.5s-52.5 23.552-52.5 52.5c0 14.617 6.005 27.858 15.677 37.386-.439 1.329-.677 2.75-.677 4.224v24c0 6.234 4.247 11.494 10 13.04v262.337c-5.753 1.545-10 6.806-10 13.04v24c0 6.234 4.247 11.494 10 13.04v40.933c0 15.163 12.336 27.5 27.5 27.5s27.5-12.337 27.5-27.5v-40.933c5.753-1.545 10-6.806 10-13.04v-24c0-6.234-4.247-11.494-10-13.04v-262.337c5.753-1.545 10-6.806 10-13.04v-24c0-1.475-.238-2.895-.677-4.224 9.672-9.528 15.677-22.769 15.677-37.386zm-90 0c0-20.678 16.822-37.5 37.5-37.5s37.5 16.822 37.5 37.5c0 11.193-4.929 21.255-12.73 28.132-.094-.005-.188-.01-.283-.013 1.926-3.754 3.013-8.007 3.013-12.509 0-15.163-12.336-27.5-27.5-27.5s-27.5 12.337-27.5 27.5c0 4.502 1.087 8.754 3.013 12.509-.094.003-.189.008-.283.013-7.801-6.877-12.73-16.939-12.73-28.132zm25 15.61c0-6.893 5.607-12.5 12.5-12.5s12.5 5.607 12.5 12.5-5.607 12.5-12.5 12.5-12.5-5.607-12.5-12.5zm32.5 339.92c.069 0 .138-.001.206-.003h2.294v21h-45v-21h2.294c.069.002.137.003.206.003s.138-.001.206-.003h39.587c.069.002.138.003.207.003zm-7.5-15.003h-25v-261.417h25zm-12.5 103.973c-6.893 0-12.5-5.607-12.5-12.5v-40.473h25v40.473c0 6.893-5.607 12.5-12.5 12.5zm22.5-380.39h-45v-16.68c6.823 3.25 14.453 5.07 22.5 5.07s15.677-1.82 22.5-5.07z"/></svg>