<svg id="Capa_1" enable-background="new 0 0 512 512" height="512" viewBox="0 0 512 512" width="512" xmlns="http://www.w3.org/2000/svg"><path d="m500.5 379h-62.459c-9.631-11.024-23.787-18-39.541-18s-29.91 6.976-39.541 18h-9.917l-14.164-61.191c-.933-4.036-4.96-6.547-8.998-5.615-4.035.934-6.55 4.963-5.615 8.998l13.381 57.808h-24.604l-45.344-195.882 12.303-53.152 3.046 13.157c.011.05.022.099.034.149l6.865 29.66c.035.179.076.356.123.531l26.979 116.555c.802 3.467 3.888 5.811 7.3 5.811.561 0 1.129-.063 1.698-.195 4.035-.934 6.55-4.963 5.615-8.998l-24.913-107.636h165.252c12.406 0 22.5-10.094 22.5-22.5 0-5.72-2.146-10.949-5.675-14.924 3.527-3.939 5.675-9.138 5.675-14.829v-15.247c0-4.143-3.357-7.5-7.5-7.5h-5.225c.482-2.786.725-5.625.725-8.5 0-27.294-22.206-49.5-49.5-49.5s-49.5 22.206-49.5 49.5c0 2.875.243 5.714.725 8.5h-5.225c-4.143 0-7.5 3.357-7.5 7.5v15.247c0 2.538.427 4.979 1.214 7.253h-76.382l-2.544-10.992c-1.638-7.07-7.851-12.008-15.107-12.008h-37.363c-7.255 0-13.464 4.937-15.101 12.005l-2.546 10.995h-123.902c-4.142 0-7.5 3.357-7.5 7.5s3.358 7.5 7.5 7.5h120.43l-3.472 15h-168.727c-4.136 0-7.5-3.364-7.5-7.5s3.364-7.5 7.5-7.5h20.077c4.142 0 7.5-3.357 7.5-7.5s-3.358-7.5-7.5-7.5h-20.077c-12.407 0-22.5 10.094-22.5 22.5s10.093 22.5 22.5 22.5h62v182.534c-12.711 1.826-23.966 8.223-32.041 17.466h-62.459c-6.341 0-11.5 5.159-11.5 11.5v32c0 6.341 5.159 11.5 11.5 11.5h53.668c8.001 18.792 26.653 32 48.332 32s40.331-13.208 48.332-32h22.348c4.142 0 7.5-3.357 7.5-7.5s-3.358-7.5-7.5-7.5h-18.466c.189-1.808.286-3.643.286-5.5 0-6.887-1.333-13.468-3.755-19.5h187.509c-2.422 6.032-3.755 12.613-3.755 19.5 0 1.857.097 3.692.286 5.5h-130.105c-4.142 0-7.5 3.357-7.5 7.5s3.358 7.5 7.5 7.5h133.989c8.001 18.792 26.653 32 48.332 32s40.331-13.208 48.332-32h53.667c6.341 0 11.5-5.159 11.5-11.5v-32c0-6.341-5.159-11.5-11.5-11.5zm-206.854 0h-75.29l37.644-162.626zm100.854-283.5c0-19.023 15.477-34.5 34.5-34.5s34.5 15.477 34.5 34.5c0 2.902-.353 5.745-1.052 8.5h-66.895c-.7-2.755-1.053-5.598-1.053-8.5zm-12 31.247v-7.747h7.486c.117.003.234.003.35 0h77.337c.055.001.109.002.164.002.054 0 .108-.001.162-.002h7.501v7.747c0 3.999-3.254 7.253-7.253 7.253h-78.494c-3.999 0-7.253-3.254-7.253-7.253zm85.5 22.253c4.136 0 7.5 3.364 7.5 7.5s-3.364 7.5-7.5 7.5h-168.724l-3.472-15zm-453 270v-25h49.755c-2.422 6.032-3.755 12.613-3.755 19.5 0 1.857.097 3.692.286 5.5zm98.5 32c-16.814 0-31.079-11.123-35.823-26.398-.048-.182-.102-.362-.162-.538-.985-3.352-1.515-6.897-1.515-10.564 0-8.312 2.719-16 7.312-22.224.149-.179.289-.366.42-.56 6.389-8.328 16.189-13.908 27.292-14.636.775.271 1.608.419 2.476.419s1.701-.148 2.476-.419c11.103.727 20.903 6.308 27.292 14.636.132.193.272.38.42.56 4.593 6.224 7.312 13.912 7.312 22.224 0 3.667-.53 7.212-1.515 10.564-.061.177-.115.356-.162.538-4.744 15.275-19.009 26.398-35.823 26.398zm7.5-89.466v-182.534h88.254l-46.294 200h-9.918c-8.076-9.243-19.331-15.64-32.042-17.466zm57.356 17.466 47.592-205.604c.034-.131.065-.264.092-.398l10.789-46.609c.053-.229.253-.388.487-.388h24.206l-12.827 55.413c-.007.029-.014.057-.02.086l-45.716 197.5zm220.144 72c-16.813 0-31.078-11.122-35.822-26.396-.048-.183-.102-.363-.163-.54-.985-3.352-1.515-6.897-1.515-10.564 0-8.309 2.717-15.995 7.308-22.217.152-.184.296-.375.431-.573 6.86-8.938 17.65-14.709 29.762-14.709s22.901 5.772 29.762 14.709c.135.198.278.389.431.573 4.591 6.223 7.308 13.908 7.308 22.217 0 3.667-.53 7.212-1.515 10.564-.061.177-.115.357-.163.54-4.746 15.274-19.011 26.396-35.824 26.396zm98.5-32h-46.286c.189-1.808.286-3.643.286-5.5 0-6.887-1.333-13.468-3.755-19.5h49.755z"/><path d="m398.5 391c-12.406 0-22.5 10.094-22.5 22.5s10.094 22.5 22.5 22.5 22.5-10.094 22.5-22.5-10.094-22.5-22.5-22.5zm0 30c-4.136 0-7.5-3.364-7.5-7.5s3.364-7.5 7.5-7.5 7.5 3.364 7.5 7.5-3.364 7.5-7.5 7.5z"/><path d="m113.5 391c-12.407 0-22.5 10.094-22.5 22.5s10.093 22.5 22.5 22.5 22.5-10.094 22.5-22.5-10.093-22.5-22.5-22.5zm0 30c-4.136 0-7.5-3.364-7.5-7.5s3.364-7.5 7.5-7.5 7.5 3.364 7.5 7.5-3.364 7.5-7.5 7.5z"/></svg>