<svg id="Capa_1" enable-background="new 0 0 512 512" height="512" viewBox="0 0 512 512" width="512" xmlns="http://www.w3.org/2000/svg"><path d="m440 71.064c4.143 0 7.5-3.357 7.5-7.5v-8.564h53c6.341 0 11.5-5.159 11.5-11.5v-32c0-6.341-5.159-11.5-11.5-11.5h-489c-6.341 0-11.5 5.159-11.5 11.5v32c0 6.341 5.159 11.5 11.5 11.5h53v361.077c0 4.143 3.357 7.5 7.5 7.5s7.5-3.357 7.5-7.5v-361.077h15v402h-15v-8.308c0-4.143-3.357-7.5-7.5-7.5s-7.5 3.357-7.5 7.5v8.308h-53c-6.341 0-11.5 5.159-11.5 11.5v32c0 6.341 5.159 11.5 11.5 11.5h489c6.341 0 11.5-5.159 11.5-11.5v-32c0-6.341-5.159-11.5-11.5-11.5h-53v-361.23c0-4.143-3.357-7.5-7.5-7.5s-7.5 3.357-7.5 7.5v361.23h-15c0-15.569 0-383.51 0-402h15v8.564c0 4.143 3.357 7.5 7.5 7.5zm-271.5-16.064v64h-59v-64zm160 0v64h-145v-64zm-25.673 319.764c-3.606-22.596-23.231-39.92-46.827-39.92s-43.221 17.324-46.827 39.92h-99.673v-66.764h293v66.764zm-14.407 7.5c0 17.876-14.544 32.42-32.42 32.42s-32.42-14.544-32.42-32.42 14.544-32.42 32.42-32.42 32.42 14.544 32.42 32.42zm114.08-132.77-50.585-9.309c-4.07-.755-7.984 1.944-8.733 6.019-.75 4.074 1.945 7.984 6.019 8.733l53.3 9.808v28.255h-293v-82.173l208.647 38.396c4.066.751 7.983-1.945 8.733-6.019s-1.945-7.984-6.019-8.733l-211.362-38.896v-9.287l293 42.699zm0-35.667-293-42.699v-37.128h293zm94.5 258.173v25h-482v-25zm-387.5-15v-67.236h99.673c3.606 22.596 23.231 39.92 46.827 39.92s43.221-17.324 46.827-39.92h99.673v67.236zm293-338h-59v-64h59zm-387.5-79v-25h482v25z"/></svg>