<svg id="Capa_1" enable-background="new 0 0 512 512" height="512" viewBox="0 0 512 512" width="512" xmlns="http://www.w3.org/2000/svg"><path d="m505.758 228.677-54.286-9.235v-31.842c0-19.272-13.668-36.229-32.498-40.318l-52.8-11.471c-16.319-3.543-31.551-10.144-45.272-19.616-3.406-2.354-8.08-1.498-10.432 1.911-2.353 3.408-1.498 8.079 1.911 10.433 15.34 10.592 32.368 17.97 50.611 21.931l52.799 11.471c11.983 2.603 20.681 13.394 20.681 25.66v15.37c-1.156-1.161-2.672-1.924-4.325-2.145l-45.21-6.029c-2.625-.346-5.258.719-6.897 2.812-.117.149-2.593 3.295-6.917 8.495l-28.084-4.774c-9.52-2.305-18.385-6.982-25.652-13.538l-80.122-72.243c.026-.115.053-.23.079-.346 3.021-13.467 3.416-27.149 1.596-39.436 15.551 11.828 30.742 23.183 45.348 33.896 1.337.98 2.89 1.453 4.43 1.453 2.308 0 4.584-1.063 6.054-3.065 2.449-3.34 1.728-8.033-1.612-10.483-19.774-14.503-40.628-30.192-62.004-46.644-3.709-6.935-8.49-12.398-14.169-15.709-3.349-1.953-6.91-3.112-10.536-3.469-8.748-6.854-17.317-13.624-25.49-20.141-9.362-7.485-21.118-11.605-33.104-11.605h-29.48c-14.644 0-26.559 11.915-26.559 26.56v43.321h-1.63c-6.235 0-12.292.797-18.082 2.297-5.405-18.919-15.488-33.032-27.592-38.309-7.812-3.405-16.143-2.929-23.462 1.342-18.996 11.074-27.939 46.21-20.361 79.991 3.021 13.456 8.426 25.176 15.352 33.399.193 22.956 3.229 45.812 9.035 67.973 1.05 4.007 5.149 6.404 9.155 5.354 4.007-1.049 6.404-5.148 5.354-9.155-5.77-22.027-8.618-44.836-8.554-66.751.006-.16.008-.321.004-.481.378-33.516 26.767-60.66 59.151-60.66h57.784c32.317 0 58.666 27.033 59.149 60.453-.008.23-.006.461.006.691 0 .082.001.164.001.245 0 29.209-4.812 57.967-14.304 85.475-10.035 29.086-15.123 59.49-15.123 90.367 0 14.621-11.401 26.517-25.415 26.517h-66.414c-14.013 0-25.414-11.896-25.414-26.517 0-26.824-3.867-53.426-11.495-79.065-1.181-3.97-5.352-6.233-9.327-5.05-3.97 1.181-6.231 5.356-5.05 9.327 7.214 24.25 10.872 49.413 10.872 74.788 0 22.893 18.13 41.517 40.414 41.517h56.063c2.76 28.028 12.057 76.139 42.5 124.846 2.447 3.915 6.255 3.622 10.62 3.622 5.738 0 16.311-.396 29.804-2.658 21.568 15.263 56.016 22.392 107.893 22.392 67.451 0 152.745.113 169.722.17h.025c1.984 0 3.889-.786 5.295-2.188 1.411-1.407 2.205-3.319 2.205-5.313v-268.43c.001-3.657-2.636-6.78-6.241-7.393zm-484.624-104.294c-1.523-3.827-2.807-8.013-3.806-12.465-6.549-29.188 1.742-57.022 13.281-63.749 3.216-1.877 6.457-2.055 9.912-.549 8.008 3.49 15.457 15.013 19.483 29.837-18.578 9.258-32.863 26.268-38.87 46.926zm87.683-54.502v-43.321c0-6.374 5.185-11.56 11.559-11.56h29.48c8.596 0 17.025 2.954 23.744 8.324 5.463 4.356 11.099 8.822 16.845 13.349-9.82 6.617-17.879 19.286-22.508 35.474-5.754-1.48-11.772-2.267-17.965-2.267h-41.155zm73.23 7.521c4.038-14.812 11.474-26.298 19.467-29.782 3.466-1.509 6.709-1.32 9.914.55 11.536 6.726 19.827 34.56 13.278 63.748-.982 4.378-2.241 8.501-3.733 12.281-6.05-20.616-20.35-37.579-38.926-46.797zm26.958 159.236c9.798-28.399 14.88-58.057 15.115-88.185 3.936-4.714 7.376-10.558 10.16-17.203l75.061 67.679c9.186 8.288 20.41 14.183 32.458 17.048.158.037.318.069.478.097l19.512 3.317c-21.257 24.329-57.961 63.18-93.133 85.27-1.878 1.18-3.059 3.062-3.405 5.099-13.625 3.252-39.353 8.741-70.548 12.261.009-29.177 4.822-57.903 14.302-85.383zm-11.964 240.446c-26.784-44.333-35.373-87.7-38.058-113.734 14.978-1.788 27.484-12.022 32.873-25.931 36.32-3.814 66.095-10.416 79.746-13.766 22.179 33.376 56.98 56.245 77.996 67.9-23.276 37.099-55.901 62.708-97.079 76.173-25.52 8.346-47.068 9.336-55.478 9.358zm299.959 19.896c-27.208-.06-101.877-.15-162.247-.15-38.097 0-66.438-4.049-85.867-12.324 2.513-.707 5.076-1.479 7.68-2.321 31.437-10.171 74.86-32.928 106.393-83.716 3.7 1.766 6.647 3.657 10.398 2.022 1.899-.827 3.372-2.403 4.068-4.354 4.712-13.197 10.874-31.262 18.316-53.692 1.305-3.932-.825-8.177-4.756-9.48-3.931-1.308-8.177.825-9.48 4.757-6.023 18.151-11.198 33.417-15.435 45.526-16.961-8.581-59.537-32.784-83.277-69.897 47.683-32.161 94.671-88.618 106.37-103.124l32.15 4.288c-5.213 16.46-17.283 54.428-29.826 92.858-1.285 3.938.865 8.172 4.803 9.457 3.944 1.285 8.172-.865 9.457-4.803 10.057-30.814 19.809-61.327 25.977-80.729l65.276 11.104z"/><path d="m119.247 312.192c19.679 0 35.525-19.813 35.525-36.218 0-8.563-4.513-15.248-12.707-18.826-5.548-2.423-12.799-3.551-22.818-3.551s-17.27 1.128-22.817 3.551c-8.194 3.578-12.707 10.264-12.707 18.826 0 16.405 15.845 36.218 35.524 36.218zm0-43.594c20.525 0 20.525 5.359 20.525 7.377 0 8.186-9.394 21.218-20.525 21.218s-20.524-13.032-20.524-21.218c0-2.018 0-7.377 20.524-7.377z"/></svg>