<svg id="Capa_1" enable-background="new 0 0 512 512" height="512" viewBox="0 0 512 512" width="512" xmlns="http://www.w3.org/2000/svg"><path d="m490.558 457.673v-169.23c0-4.143-3.358-7.5-7.5-7.5s-7.5 3.357-7.5 7.5v168.557h-87v-216.222h87v15.222c0 4.143 3.358 7.5 7.5 7.5s7.5-3.357 7.5-7.5v-15.222h.291c4.368 0 8.381-2.194 10.734-5.869 2.349-3.668 2.663-8.218.841-12.173l-58.752-127.55c-2.104-4.568-6.54-7.407-11.575-7.407-5.036 0-9.471 2.838-11.576 7.407l-58.752 127.551c-1.822 3.955-1.507 8.505.841 12.173 2.353 3.675 6.366 5.869 10.734 5.869h.214v26.636h-24.525c-2.574-8.921-9.62-15.965-18.542-18.536v-99.892c4.305-.012 8.299-2.344 10.429-6.094 2.14-3.768 2.09-8.419-.128-12.139l-74.459-124.88c-2.192-3.678-6.056-5.874-10.333-5.874s-8.141 2.196-10.333 5.874l-19.675 32.998c-2.121 3.558-.957 8.161 2.601 10.282 3.558 2.122 8.162.957 10.283-2.601l17.124-28.72 69.254 116.153h-138.508l35.749-59.958c2.121-3.558.957-8.161-2.601-10.282-3.557-2.12-8.161-.956-10.283 2.601l-38.401 64.406c-2.219 3.721-2.268 8.372-.128 12.14 2.129 3.749 6.123 6.082 10.429 6.094v99.892c-8.922 2.571-15.969 9.614-18.543 18.536h-24.601v-26.636h.291c4.368 0 8.381-2.194 10.734-5.869 2.349-3.668 2.663-8.218.841-12.173l-58.754-127.551c-2.105-4.569-6.541-7.407-11.576-7.407s-9.471 2.839-11.575 7.407l-58.752 127.55c-1.822 3.955-1.507 8.505.841 12.173 2.353 3.675 6.366 5.869 10.734 5.869h.214v174.992c0 4.143 3.358 7.5 7.5 7.5s7.5-3.357 7.5-7.5v-174.992h87v216.222h-87v-8.82c0-4.143-3.358-7.5-7.5-7.5s-7.5 3.357-7.5 7.5v9.51c-12.22 2.795-21.365 13.754-21.365 26.81 0 15.164 12.336 27.5 27.5 27.5h457c15.164 0 27.5-12.336 27.5-27.5 0-13.083-9.183-24.061-21.442-26.827zm-58.462-351.765 55.214 119.87h-110.429zm-407.407 119.87 55.214-119.87 55.215 119.87zm272.278 41.636h-14.934c-3.26-11.301-13.697-19.589-26.033-19.589s-22.772 8.288-26.033 19.589h-14.934c-2.572-8.915-9.61-15.955-18.523-18.53v-99.894h118.98v99.894c-8.913 2.575-15.951 9.615-18.523 18.53zm-127.556 15c4.142 0 7.5-3.357 7.5-7.5 0-6.038 4.56-11.905 12.286-12.086 6.575.106 11.891 5.486 11.891 12.086 0 4.143 3.358 7.5 7.5 7.5h27.822c4.142 0 7.5-3.357 7.5-7.5 0-6.666 5.423-12.089 12.089-12.089s12.089 5.423 12.089 12.089c0 4.143 3.358 7.5 7.5 7.5h27.822c4.142 0 7.5-3.357 7.5-7.5 0-6.6 5.316-11.98 11.891-12.086.062.001.125.002.188.002.065 0 .131-.001.196-.002 6.581.1 11.903 5.482 11.903 12.086 0 4.143 3.358 7.5 7.5 7.5h30.969v15h-235.191v-15zm-31.045 30h235.192v144.586h-52.058v-62.5c0-36.117-29.383-65.5-65.5-65.5s-65.5 29.383-65.5 65.5v62.5h-52.134zm168.134 144.586h-101v-62.5c0-27.846 22.654-50.5 50.5-50.5s50.5 22.654 50.5 50.5zm178 40h-457c-6.893 0-12.5-5.607-12.5-12.5s5.607-12.5 12.5-12.5h457c6.893 0 12.5 5.607 12.5 12.5s-5.607 12.5-12.5 12.5z"/><path d="m58.143 405.722c0 6.692 5.445 12.138 12.137 12.138h21.967c6.692 0 12.137-5.445 12.137-12.138v-17.896c0-12.749-10.372-23.121-23.121-23.121s-23.121 10.372-23.121 23.121v17.896zm15-17.896c0-4.478 3.643-8.121 8.121-8.121s8.121 3.644 8.121 8.121v15.033h-16.242z"/><path d="m433.455 364.705c-12.749 0-23.121 10.372-23.121 23.121v17.896c0 6.692 5.445 12.138 12.137 12.138h21.967c6.692 0 12.137-5.445 12.137-12.138v-17.896c.001-12.749-10.371-23.121-23.12-23.121zm8.121 38.154h-16.241v-15.033c0-4.478 3.643-8.121 8.121-8.121s8.121 3.644 8.121 8.121v15.033z"/><path d="m92.247 334.096c6.692 0 12.137-5.444 12.137-12.137v-17.896c0-12.748-10.372-23.12-23.121-23.12s-23.121 10.372-23.121 23.12v17.896c0 6.692 5.445 12.137 12.137 12.137zm-19.104-30.033c0-4.478 3.643-8.12 8.121-8.12s8.121 3.643 8.121 8.12v15.033h-16.242z"/><path d="m456.576 304.063c0-12.748-10.372-23.12-23.121-23.12s-23.121 10.372-23.121 23.12v17.896c0 6.692 5.445 12.137 12.137 12.137h21.967c6.692 0 12.137-5.444 12.137-12.137v-17.896zm-15 15.033h-16.241v-15.033c0-4.478 3.643-8.12 8.121-8.12s8.121 3.643 8.121 8.12v15.033z"/><path d="m256 171.829c-12.749 0-23.121 10.372-23.121 23.12v17.896c0 6.692 5.445 12.137 12.137 12.137h21.967c6.692 0 12.137-5.444 12.137-12.137v-17.896c.001-12.748-10.371-23.12-23.12-23.12zm8.121 38.153h-16.241v-15.033c0-4.478 3.643-8.12 8.121-8.12s8.121 3.643 8.121 8.12v15.033z"/></svg>