<svg id="Capa_1" enable-background="new 0 0 512 512" height="512" viewBox="0 0 512 512" width="512" xmlns="http://www.w3.org/2000/svg"><path d="m504.5 300.5h-15.58v-16.423c0-4.143-3.357-7.5-7.5-7.5s-7.5 3.357-7.5 7.5v16.423h-12.999c-.563-2.865-1.231-5.694-2.001-8.48v-156.52h15v116.27c0 4.143 3.357 7.5 7.5 7.5s7.5-3.357 7.5-7.5v-123.77c0-4.143-3.357-7.5-7.5-7.5h-30c-4.143 0-7.5 3.357-7.5 7.5v.5h-3.513v-8.5c0-26.191-21.309-47.5-47.5-47.5s-47.5 21.309-47.5 47.5v8.5h-11.3v-8.5c0-26.191-21.309-47.5-47.5-47.5s-47.5 21.309-47.5 47.5v8.5h-11.3v-8.5c0-26.191-21.309-47.5-47.5-47.5s-47.5 21.309-47.5 47.5v8.5h-7.4v-.5c0-4.143-3.358-7.5-7.5-7.5h-30c-4.142 0-7.5 3.357-7.5 7.5v28.18c0 4.143 3.358 7.5 7.5 7.5s7.5-3.357 7.5-7.5v-20.68h14.859c-.011.165-.017.332-.017.5v164.5h-14.841v-112.5c0-4.143-3.358-7.5-7.5-7.5s-7.5 3.357-7.5 7.5v112.5h-72.908c-4.142 0-7.5 3.357-7.5 7.5v30c0 4.143 3.358 7.5 7.5 7.5h184.115c4.142 0 7.5-3.357 7.5-7.5s-3.358-7.5-7.5-7.5h-176.615v-15h215.342c-.158 2.48-.239 4.981-.239 7.5s.08 5.02.239 7.5h-6.419c-4.142 0-7.5 3.357-7.5 7.5s3.358 7.5 7.5 7.5h8.361c10.512 53.509 57.775 94 114.319 94 56.542 0 103.806-40.491 114.318-94h43.579c4.143 0 7.5-3.357 7.5-7.5v-30c0-4.143-3.357-7.5-7.5-7.5zm-241.515-58.54h-137.577v-39.92h318.512v39.92h-13.7c-21.189-21.856-50.844-35.46-83.617-35.46-32.774 0-62.429 13.604-83.618 35.46zm97.422-121.96c0-17.921 14.579-32.5 32.5-32.5s32.5 14.579 32.5 32.5v8.5h-65zm-106.3 0c0-17.921 14.579-32.5 32.5-32.5s32.5 14.579 32.5 32.5v8.5h-65zm-106.299 0c0-17.921 14.58-32.5 32.5-32.5s32.5 14.579 32.5 32.5v8.5h-65zm296.112 23.5v43.54h-318.512v-43.54zm-318.512 157v-43.54h125.268c-8.896 12.883-15.267 27.636-18.391 43.54zm221.195 124c-56.067 0-101.5-45.631-101.5-101.5 0-56.108 45.679-101.5 101.5-101.5 56.106 0 101.499 45.661 101.499 101.5 0 55.887-45.455 101.5-101.499 101.5zm150.397-94h-34.137c.308-4.827.328-9.855 0-15h34.137z"/><path d="m346.603 236.5c-11.126 0-21.769 2.112-31.548 5.956-.036.014-.073.028-.109.043-32.083 12.661-54.843 43.973-54.843 80.502 0 47.696 38.804 86.5 86.5 86.5 47.695 0 86.499-38.804 86.499-86.5s-38.804-86.501-86.499-86.501zm0 109c-12.29 0-22.5-10.012-22.5-22.5 0-12.453 10.146-22.5 22.5-22.5 12.038 0 22.5 9.833 22.5 22.5 0 12.361-10.052 22.5-22.5 22.5zm-71.11-15c-.258-2.465-.391-4.968-.391-7.5s.133-5.035.391-7.5h33.79l.529.222c-.901 4.563-.971 9.433-.057 14.264l-1.255.514zm90.641-73.54-12.254 29.25c-4.608-.909-9.475-.962-14.258-.058l-11.956-29.192zm17.258 73.321c.903-4.573.97-9.446.057-14.269l1.251-.512h33.011c.258 2.465.391 4.968.391 7.5s-.133 5.035-.391 7.5h-33.795zm26.158-41.165-27.801 11.384h-5.165c-2.473-3.288-5.474-6.157-8.875-8.481l13.278-31.694c12.063 6.644 22.013 16.67 28.563 28.791zm-96.828-29.067 13.025 31.8c-3.505 2.354-6.592 5.283-9.126 8.651h-4.323l-28.37-11.886c6.645-12.064 16.672-22.014 28.794-28.565zm-29.067 96.837 27.799-11.386h5.167c2.473 3.286 5.472 6.155 8.872 8.479l-13.279 31.695c-12.061-6.645-22.009-16.669-28.559-28.788zm42.386 34.601 13.28-31.697c4.592.907 9.466.967 14.27.057l13.023 31.803c-6.353 1.855-13.068 2.85-20.011 2.85-7.145 0-14.048-1.054-20.562-3.013zm54.446-5.539-13.022-31.801c3.502-2.354 6.587-5.281 9.12-8.647h4.318l28.374 11.888c-6.645 12.061-16.67 22.01-28.79 28.56z"/></svg>