<svg id="Capa_1" enable-background="new 0 0 512 512" height="512" viewBox="0 0 512 512" width="512" xmlns="http://www.w3.org/2000/svg"><path d="m453.659 169.806c-2.09-3.575-6.685-4.779-10.26-2.689-3.576 2.09-4.78 6.684-2.689 10.26 17.776 30.409 26.79 64.625 26.79 101.695 0 87.606-50.823 137.728-73.024 155.418-1.233-8.833-3.677-17.015-7.295-24.503 20.473-26.836 43.372-70.388 43.372-130.915 0-60.525-22.899-104.079-43.372-130.915 3.618-7.488 6.062-15.67 7.295-24.504 7.266 5.787 17.866 15.247 28.652 28.436 2.622 3.208 7.349 3.68 10.554 1.058 3.206-2.622 3.68-7.348 1.058-10.554-14.635-17.894-29.046-29.49-36.336-34.812-7.264-5.298-17.573-.534-18.219 8.429-2.366 32.83-23.078 52.76-54.572 63.218-18.221 6.051-36.395 7.573-46.112 7.928v-36.093c5.787-1.803 10-7.21 10-13.583v-16.554c0-5.829-3.524-10.85-8.553-13.044l8.015-39.693c1.899-9.402-.055-19.357-5.36-27.347l-21.06-35.206c-.068-.113-.14-.226-.214-.336-2.317-3.443-6.179-5.5-10.329-5.5s-8.012 2.057-10.328 5.5c-.074.11-.146.223-.214.336l-21.06 35.206c-5.306 7.989-7.26 17.944-5.36 27.347l8.015 39.693c-5.029 2.195-8.553 7.216-8.553 13.044v16.554c0 6.373 4.213 11.78 10 13.583v71.922h-19.5c-9.443 0-17.163 7.518-17.489 16.883h-76.752c-.116 0-.232.003-.349.008-.809.038-20.025 1.017-39.493 9.388-27.096 11.649-41.417 31.741-41.417 58.103 0 4.143 3.357 7.5 7.5 7.5h27.077c4.143 0 7.5-3.357 7.5-7.5s-3.357-7.5-7.5-7.5h-19.041c2.413-16.313 12.969-28.63 31.47-36.679 16.174-7.037 32.771-8.218 34.461-8.321h76.533v15h-71.399c-4.143 0-7.5 3.357-7.5 7.5s3.357 7.5 7.5 7.5h71.399v15h-91.423c-4.143 0-7.5 3.357-7.5 7.5s3.357 7.5 7.5 7.5h91.434c.326 9.365 8.046 16.884 17.489 16.884h19.5v20.126c0 4.143 3.357 7.5 7.5 7.5s7.5-3.357 7.5-7.5v-200.175h25v345.098h-25v-112.923c0-4.143-3.357-7.5-7.5-7.5s-7.5 3.357-7.5 7.5v120.423c0 4.143 3.357 7.5 7.5 7.5h40c4.143 0 7.5-3.357 7.5-7.5v-133.702c9.719.355 27.889 1.873 46.113 7.923 31.555 10.475 52.209 30.435 54.571 63.212.65 9.013 11.01 13.686 18.221 8.427 19.728-14.398 84.095-69.305 84.095-171.288 0-39.767-9.703-76.529-28.841-109.266zm-220.697-120.568c.073-.109.145-.222.213-.335l18.825-31.47 18.825 31.471c.068.113.14.226.213.335 3.172 4.715 4.346 10.612 3.221 16.182l-8.376 41.482h-27.766l-8.376-41.482c-1.125-5.57.049-11.468 3.221-16.183zm-27.962 267.713c-1.379 0-2.5-1.121-2.5-2.5v-73.767c0-1.379 1.121-2.5 2.5-2.5h19.5v78.767zm24.5-180.049v-15c1.399.221 44.896 0 45 0v15zm100.453 227.454c-20.265-6.664-39.956-8.252-50.453-8.587v-50.835h37.827c15.09 0 27.366-12.277 27.366-27.367s-12.276-27.366-27.366-27.366h-37.827v-47.82c10.498-.336 30.19-1.925 50.454-8.591 21.314-7.011 37.671-17.801 48.704-31.936 18.067 25.193 36.895 64.178 36.895 117.217 0 53.041-18.828 92.024-36.896 117.217-11.033-14.133-27.39-24.922-48.704-31.932zm-49.362-74.421v-24.733h36.736c6.818 0 12.366 5.548 12.366 12.366 0 6.819-5.548 12.367-12.366 12.367z"/></svg>