<svg id="Capa_1" enable-background="new 0 0 512 512" height="512" viewBox="0 0 512 512" width="512" xmlns="http://www.w3.org/2000/svg"><path d="m504.5 370.627c-23.194 0-25.264 17.344-41.423 17.344-7.63 0-11.097-2.903-15.896-6.922-5.545-4.644-12.446-10.422-25.527-10.422-1.221 0-2.389.05-3.507.146 12.421-14.644 23.371-33.267 32.76-55.764 13.49-32.321 18.466-60.433 18.671-61.614.379-2.181-.225-4.418-1.65-6.112s-3.525-2.672-5.739-2.672h-32.12c-14.495 0-27.961 8.168-34.511 21.41l-27.453-26.317 7.026-1.453c7.567-1.564 10.901-10.49 6.229-16.63l-109.563-144.019c-2.509-3.297-7.213-3.935-10.51-1.428-3.296 2.508-3.936 7.213-1.428 10.51l105.232 138.326c-1.945.402-164.225 33.958-175.076 36.202-.118.021-.234.046-.35.073l-7.455 1.542 6.837-57.722c.039-.233.067-.47.084-.711l21.592-182.298 29.764 39.125c2.509 3.297 7.214 3.936 10.51 1.428s3.936-7.213 1.428-10.51l-36.511-47.994c-2.603-3.422-6.968-4.901-11.115-3.771-4.148 1.132-7.155 4.621-7.661 8.891l-22.16 187.096h-103.688c-4.142 0-7.5 3.357-7.5 7.5v59.46h-13.98c-4.142 0-7.5 3.357-7.5 7.5 0 26.102 1.804 49.03 5.361 68.147.758 4.072 4.678 6.763 8.746 6.001 4.072-.758 6.759-4.673 6.001-8.745-3.049-16.384-4.746-35.831-5.056-57.903h21.348c.954 0 1.73.771 1.73 1.72 0 15.164 12.253 27.53 27.52 27.53h248.54c22.522 0 42.954-13.319 52.054-33.936 3.748-8.509 12.166-14.023 21.516-14.023h22.873c-6.046 26.063-27.77 102.642-78.685 127.598-10.416-2.988-15.014-16.582-35.438-16.582-23.193 0-25.255 17.344-41.417 17.344-16.479 0-17.914-17.344-41.416-17.344-23.191 0-25.251 17.344-41.411 17.344-16.479 0-17.914-17.344-41.416-17.344-23.193 0-25.255 17.344-41.417 17.344-16.479 0-17.914-17.344-41.416-17.344-6.654 0-11.708 1.496-15.799 3.577-1.395-2.639-2.715-5.503-3.947-8.572-1.543-3.844-5.912-5.707-9.755-4.165-3.844 1.544-5.708 5.911-4.164 9.755 1.72 4.282 3.606 8.258 5.637 11.887-3.682 2.914-7.138 4.862-13.386 4.862-16.478 0-17.913-17.344-41.413-17.344-4.142 0-7.5 3.357-7.5 7.5v96.369c0 20.679 16.822 37.503 37.5 37.503h378.885c4.142 0 7.5-3.357 7.5-7.5s-3.358-7.5-7.5-7.5h-378.885c-12.407 0-22.5-10.095-22.5-22.504v-87.593c9.161 3.599 14.467 16.067 33.913 16.067 23.576 0 24.802-17.344 41.414-17.344 16.479 0 17.914 17.344 41.416 17.344 23.193 0 25.255-17.344 41.417-17.344 16.479 0 17.915 17.344 41.416 17.344 23.191 0 25.251-17.344 41.411-17.344 16.479 0 17.914 17.344 41.416 17.344 23.192 0 25.256-17.344 41.417-17.344 16.941 0 17.438 17.344 41.418 17.344 23.193 0 25.255-17.344 41.417-17.344 16.48 0 17.919 17.344 41.423 17.344 19.443 0 24.794-12.485 33.923-16.068v87.594c-.001 12.409-10.094 22.504-22.501 22.504h-26.32c-4.142 0-7.5 3.357-7.5 7.5s3.358 7.5 7.5 7.5h26.32c20.678 0 37.5-16.824 37.5-37.504v-96.369c0-4.142-3.358-7.5-7.5-7.5zm-275.82-102.092v24.036h-29.81v-17.872zm-120.72 24.036c-6.92 0-12.52-5.6-12.52-12.53 0-9.193-7.462-16.676-16.65-16.719v-51.96h94.411l-6.622 55.908c-.733 6.173 4.073 11.728 10.433 11.728.704 0 1.414-.071 2.115-.216l4.743-.981v14.77zm135.72 0v-27.137l15-3.102v30.239zm112.82 0h-82.82v-33.341l76.596-15.839 37.114 35.578c-7.804 8.516-18.948 13.602-30.89 13.602z"/><path d="m162.515 343.418c0-12.406-10.093-22.5-22.5-22.5s-22.5 10.094-22.5 22.5 10.093 22.5 22.5 22.5 22.5-10.093 22.5-22.5zm-30 0c0-4.136 3.364-7.5 7.5-7.5s7.5 3.364 7.5 7.5-3.364 7.5-7.5 7.5-7.5-3.364-7.5-7.5z"/><path d="m251.485 343.418c0-12.406-10.093-22.5-22.5-22.5s-22.5 10.094-22.5 22.5 10.093 22.5 22.5 22.5 22.5-10.093 22.5-22.5zm-30 0c0-4.136 3.364-7.5 7.5-7.5s7.5 3.364 7.5 7.5-3.364 7.5-7.5 7.5-7.5-3.364-7.5-7.5z"/><path d="m317.955 365.918c12.407 0 22.5-10.094 22.5-22.5s-10.093-22.5-22.5-22.5-22.5 10.094-22.5 22.5c0 12.407 10.093 22.5 22.5 22.5zm0-30c4.136 0 7.5 3.364 7.5 7.5s-3.364 7.5-7.5 7.5-7.5-3.364-7.5-7.5c0-4.135 3.364-7.5 7.5-7.5z"/><path d="m145 224.501h-26c-7.444 0-13.5 6.056-13.5 13.5v22c0 7.444 6.056 13.5 13.5 13.5h26c7.444 0 13.5-6.056 13.5-13.5v-22c0-7.445-6.056-13.5-13.5-13.5zm-1.5 33.999h-23v-19h23z"/></svg>