<svg id="Capa_1" enable-background="new 0 0 512 512" height="512" viewBox="0 0 512 512" width="512" xmlns="http://www.w3.org/2000/svg"><path d="m434.5 357c-2.578 0-5.126.127-7.64.374v-24.874h12.14c12.407 0 22.5-10.094 22.5-22.5 0-2.773-.505-5.43-1.426-7.885 17.471-2.566 30.926-17.654 30.926-35.827v-10.288c0-4.143-3.358-7.5-7.5-7.5s-7.5 3.357-7.5 7.5v10.288c0 11.696-9.516 21.212-21.211 21.212h-93.289v-263.355h93.289c11.696 0 21.211 9.516 21.211 21.211v179.337c0 4.143 3.358 7.5 7.5 7.5s7.5-3.357 7.5-7.5v-179.338c0-19.967-16.244-36.211-36.211-36.211h-93.289v-1.644c0-4.143-3.358-7.5-7.5-7.5s-7.5 3.357-7.5 7.5v1.645h-181v-1.645c0-4.143-3.358-7.5-7.5-7.5s-7.5 3.357-7.5 7.5v1.645h-93.289c-19.967 0-36.211 16.244-36.211 36.21v18.567c0 4.143 3.358 7.5 7.5 7.5s7.5-3.357 7.5-7.5v-18.567c0-11.695 9.516-21.211 21.211-21.211h93.289v263.356h-93.289c-11.695 0-21.211-9.516-21.211-21.212v-170.673c0-4.143-3.358-7.5-7.5-7.5s-7.5 3.357-7.5 7.5v170.673c0 18.173 13.455 33.261 30.926 35.827-.921 2.455-1.426 5.112-1.426 7.885 0 12.406 10.093 22.5 22.5 22.5h12.14v24.874c-2.514-.247-5.062-.374-7.64-.374-42.734 0-77.5 34.767-77.5 77.5s34.766 77.5 77.5 77.5c40.302 0 73.517-30.923 77.167-70.288 2.206.191 4.421.288 6.633.288h43.013c2.632 9.503 11.358 16.5 21.687 16.5 5.757 0 11.016-2.174 15-5.744 3.984 3.57 9.243 5.744 15 5.744s11.016-2.174 15-5.744c3.984 3.57 9.243 5.744 15 5.744 10.33 0 19.055-6.997 21.687-16.5h43.013c2.212 0 4.427-.096 6.633-.288 3.65 39.365 36.865 70.288 77.167 70.288 42.734 0 77.5-34.767 77.5-77.5s-34.766-77.5-77.5-77.5zm-269-332.855h181v263.355h-181zm-100 285.855c0-4.136 3.364-7.5 7.5-7.5h366c4.136 0 7.5 3.364 7.5 7.5s-3.364 7.5-7.5 7.5h-366c-4.136 0-7.5-3.364-7.5-7.5zm12 187c-34.462 0-62.5-28.037-62.5-62.5s28.038-62.5 62.5-62.5c33.94 0 61.648 27.193 62.481 60.938-.005.214-.001.427.012.638.511 34.788-27.633 63.424-62.493 63.424zm148.5-53.5c-4.136 0-7.5-3.364-7.5-7.5v-20.077c0-4.143-3.358-7.5-7.5-7.5s-7.5 3.357-7.5 7.5v11.077h-42.2c-2.235 0-4.473-.122-6.696-.364-3.177-31.382-25.155-57.294-54.464-66.264v-27.872h103.36v51.115c0 4.143 3.358 7.5 7.5 7.5s7.5-3.357 7.5-7.5v-51.115h15v103.5c0 4.136-3.364 7.5-7.5 7.5zm30 0c-4.136 0-7.5-3.364-7.5-7.5v-103.5h15v103.5c0 4.136-3.364 7.5-7.5 7.5zm37.5-7.5c0 4.136-3.364 7.5-7.5 7.5s-7.5-3.364-7.5-7.5v-103.5h15zm15-9v-94.5h103.36v27.873c-29.309 8.969-51.287 34.881-54.464 66.264-2.223.242-4.461.364-6.696.364h-42.2zm126 70c-34.462 0-62.5-28.037-62.5-62.5 0-32.972 26.727-62.5 62.5-62.5 34.462 0 62.5 28.037 62.5 62.5s-28.038 62.5-62.5 62.5z"/><path d="m434.5 387c-26.06 0-47.5 21.188-47.5 47.5 0 26.191 21.309 47.5 47.5 47.5s47.5-21.309 47.5-47.5-21.309-47.5-47.5-47.5zm-18.919 21.089 5.117 12.497-12.456-5.218c2.071-2.835 4.565-5.287 7.339-7.279zm-13.149 21.109 12.469 5.223-12.51 5.123c-.523-3.344-.534-6.856.041-10.346zm64.136 10.604-12.469-5.223 12.51-5.123c.523 3.344.534 6.856-.041 10.346zm-5.657-24.222-12.497 5.118 5.218-12.455c2.797 2.044 5.257 4.523 7.279 7.337zm-21.108-13.147-5.224 12.469-5.123-12.51c3.377-.53 6.89-.528 10.347.041zm-31.714 50.987 12.497-5.118-5.218 12.455c-2.797-2.044-5.257-4.523-7.279-7.337zm21.108 13.147 5.224-12.469 5.123 12.51c-3.377.53-6.89.528-10.347-.041zm24.222-5.656-5.117-12.497 12.456 5.218c-2.044 2.797-4.524 5.257-7.339 7.279z"/><path d="m77.5 387c-26.191 0-47.5 21.309-47.5 47.5s21.309 47.5 47.5 47.5 47.5-21.309 47.5-47.5c0-26.295-21.42-47.5-47.5-47.5zm-32.068 42.198 12.469 5.223-12.51 5.123c-.523-3.344-.534-6.856.041-10.346zm58.479-13.618-12.497 5.118 5.218-12.455c2.681 1.958 5.177 4.411 7.279 7.337zm5.698 13.876c.257 1.645.391 3.329.391 5.044 0 1.805-.148 3.576-.432 5.302l-12.469-5.223zm-26.806-27.023-5.224 12.469-5.123-12.51c3.378-.53 6.89-.528 10.347.041zm-24.222 5.656 5.117 12.497-12.456-5.218c2.044-2.797 4.524-5.257 7.339-7.279zm-7.492 45.331 12.497-5.118-5.218 12.455c-2.797-2.044-5.257-4.523-7.279-7.337zm21.108 13.147 5.224-12.469 5.123 12.51c-3.378.53-6.89.528-10.347-.041zm24.222-5.656-5.117-12.497 12.456 5.218c-2.044 2.797-4.524 5.257-7.339 7.279z"/></svg>