<svg id="Capa_1" enable-background="new 0 0 512 512" height="512" viewBox="0 0 512 512" width="512" xmlns="http://www.w3.org/2000/svg"><path d="m504.5 118.384h-103.808c-.326-9.365-8.046-16.884-17.489-16.884h-159.126c-4.143 0-7.5 3.357-7.5 7.5s3.357 7.5 7.5 7.5h124.626v135.454c0 1.955-1.591 3.546-3.546 3.546h-178.314c-1.955 0-3.546-1.591-3.546-3.546v-135.454h28.78c4.143 0 7.5-3.357 7.5-7.5s-3.357-7.5-7.5-7.5h-63.28c-9.443 0-17.163 7.519-17.489 16.884h-103.808c-4.143 0-7.5 3.357-7.5 7.5 0 26.362 14.321 46.455 41.417 58.104 19.468 8.371 38.686 9.35 39.493 9.388.116.005.232.008.349.008h30.049c.326 9.365 8.046 16.884 17.489 16.884h19.5v41.687c0 10.227 8.319 18.546 18.546 18.546h29.052c-4.309 15.061-16.587 45.257-46.931 52.592-13.227 3.196-22.464 14.808-22.464 28.236v4.172h-33.93c-10.516 0-19.07 8.555-19.07 19.07v28.429c0 4.143 3.357 7.5 7.5 7.5h47.385c4.143 0 7.5-3.357 7.5-7.5s-3.357-7.5-7.5-7.5h-39.885v-20.93c0-2.244 1.826-4.07 4.07-4.07h326.86c2.244 0 4.07 1.826 4.07 4.07v20.93h-263.423c-4.143 0-7.5 3.357-7.5 7.5s3.357 7.5 7.5 7.5h270.923c4.143 0 7.5-3.357 7.5-7.5v-28.43c0-10.516-8.555-19.07-19.07-19.07h-33.93v-4.172c0-13.429-9.237-25.04-22.464-28.236-30.348-7.336-42.625-37.538-46.932-52.592h29.053c10.227 0 18.546-8.319 18.546-18.546v-41.687h19.5c9.443 0 17.163-7.519 17.489-16.884h30.049c.116 0 .232-.003.349-.008.867-.041 21.479-1.094 41.649-10.345 3.765-1.727 5.417-6.179 3.69-9.944-1.728-3.765-6.177-5.419-9.944-3.69-16.631 7.628-34.207 8.88-35.952 8.987h-29.83v-45h95.764c-1.041 7.081-3.602 13.417-7.652 18.904-2.46 3.333-1.752 8.028 1.58 10.488 3.334 2.459 8.028 1.751 10.488-1.58 7.377-9.994 11.117-21.875 11.117-35.311 0-4.143-3.357-7.5-7.5-7.5zm-457.494 51.679c-18.501-8.05-29.057-20.367-31.47-36.68h95.761v45h-29.828c-1.735-.106-18.31-1.292-34.463-8.32zm81.791 25.205c-1.379 0-2.5-1.121-2.5-2.5v-73.768c0-1.379 1.121-2.5 2.5-2.5h19.5v78.768zm230.716 142.404c6.469 1.563 10.987 7.18 10.987 13.656v4.172h-229v-4.172c0-6.477 4.519-12.093 10.987-13.656 41.309-9.984 55.103-51.104 58.969-67.172h89.088c3.866 16.067 17.66 57.188 58.969 67.172zm26.19-144.904c0 1.379-1.121 2.5-2.5 2.5h-19.5v-78.768h19.5c1.379 0 2.5 1.121 2.5 2.5z"/></svg>