<svg id="Capa_1" enable-background="new 0 0 512 512" height="512" viewBox="0 0 512 512" width="512" xmlns="http://www.w3.org/2000/svg"><path d="m413.53 331c0-47.696-38.804-86.5-86.5-86.5s-86.5 38.804-86.5 86.5c0 47.794 38.903 86.5 86.5 86.5 47.694 0 86.5-38.802 86.5-86.5zm-157.707 6.5h34.271c.029.164.059.328.089.491l-31.803 13.023c-1.269-4.349-2.136-8.868-2.557-13.514zm19.097-15c-6.274 0-12.541-.476-18.704-1.416.507-3.643 1.291-7.197 2.327-10.644l28.784 12.06zm31.16 16.706c-1.499-3.814-1.52-6.531-1.52-9.206 0-11.039 9.883-21.5 22.471-21.5 12.566 0 22.5 10.245 22.5 22.5 0 12.488-10.161 22.5-22.5 22.5-8.379 0-16.322-4.299-20.951-14.294zm89.438 12.354-31.697-13.28c.051-.259.1-.519.146-.78h34.271c-.439 4.841-1.362 9.544-2.72 14.06zm2.51-29.06h-30.466l28.118-11.514c1.087 3.722 1.878 7.57 2.348 11.514zm-8.051-25.387-31.802 13.022c-2.672-3.975-6.084-7.413-10.037-10.115l13.279-31.694c12.062 6.643 22.01 16.668 28.56 28.787zm-42.387-34.6-13.28 31.697c-2.355-.465-4.79-.71-7.28-.71-2.387 0-4.723.225-6.987.653l-13.026-31.803c6.353-1.855 13.069-2.85 20.013-2.85 7.144 0 14.046 1.053 20.56 3.013zm-54.447 5.54 13.025 31.8c-3.976 2.672-7.415 6.085-10.118 10.039l-31.694-13.279c6.644-12.061 16.668-22.01 28.787-28.56zm-27.576 99.447h38.042l-10.966 26.174c-11.183-6.16-20.55-15.226-27.076-26.174zm40.903 31.987 13.281-31.697c2.355.465 4.79.71 7.28.71 2.387 0 4.723-.225 6.987-.653l13.026 31.803c-6.353 1.855-13.069 2.85-20.013 2.85-7.145 0-14.047-1.053-20.561-3.013zm54.447-5.54-10.832-26.447h38.408c-6.623 11.11-16.172 20.283-27.576 26.447z"/><path d="m191.872 79.5h117.621c1.906 0 3.457 1.551 3.457 3.457v20.268c0 48.366 39.35 87.716 87.716 87.716h30.258c10.909 0 21.716 2.712 31.252 7.841 1.13.608 2.347.896 3.546.896 2.672 0 5.258-1.431 6.612-3.948 1.962-3.647.596-8.195-3.053-10.157-11.713-6.302-24.977-9.632-38.357-9.632h-30.258c-40.096 0-72.716-32.62-72.716-72.716v-20.268c0-10.177-8.279-18.457-18.457-18.457h-117.621c-4.143 0-7.5 3.357-7.5 7.5s3.357 7.5 7.5 7.5z"/><path d="m495.791 208.373c-2.488-3.312-7.19-3.98-10.501-1.493-3.313 2.487-3.98 7.188-1.493 10.501 8.638 11.501 13.203 25.207 13.203 39.636v65.483h-15v-65.483c0-28.163-22.913-51.076-51.076-51.076h-30.257c-56.639 0-102.717-46.078-102.717-102.717v-1.224c0-4.143-3.357-7.5-7.5-7.5h-170.655c-4.136 0-7.5-3.364-7.5-7.5s3.364-7.5 7.5-7.5h40.59c4.143 0 7.5-3.357 7.5-7.5s-3.357-7.5-7.5-7.5h-40.59c-12.406 0-22.5 10.094-22.5 22.5s10.094 22.5 22.5 22.5h17.205v17.678c-3.234.06-10.399.258-12.985.711-3.589.628-6.207 3.744-6.207 7.388v122.8c0 3.644 2.618 6.76 6.207 7.388 3.218.563 13.521.732 14.527.732 5.08 0 10.141-.989 14.409-2.187 13.017 24.591 33.286 44.806 57.943 57.757-.019.244-.038.488-.055.732h-203.339c-4.143 0-7.5 3.357-7.5 7.5v30c0 4.143 3.357 7.5 7.5 7.5h56.782c4.143 0 7.5-3.357 7.5-7.5s-3.357-7.5-7.5-7.5h-49.282v-15h195.711c.281 5.093.892 10.1 1.809 15h-116.443c-4.143 0-7.5 3.357-7.5 7.5s3.357 7.5 7.5 7.5h120.309c15.35 46.416 59.148 80 110.644 80s95.294-33.584 110.645-80h66.825c4.143 0 7.5-3.357 7.5-7.5v-102.982c0-17.704-5.604-34.525-16.209-48.644zm-362.983 42.686v-108.762c2.269-.084 4.545-.14 5.734-.14 1.512 0 3.056.139 4.564.363.155.029.312.054.47.073 2.704.436 5.272 1.133 7.317 1.784l-3.498 29.339c-.465 3.892.857 7.712 3.628 10.482s6.588 4.088 10.478 3.625l29.342-3.497c1.05 3.296 2.221 7.957 2.221 12.351 0 4.383-1.169 9.038-2.221 12.34l-29.358-3.499c-3.885-.45-7.706.874-10.472 3.646-2.763 2.771-4.081 6.588-3.617 10.47l3.498 29.333c-3.304 1.054-7.973 2.229-12.351 2.229-1.19.001-3.468-.054-5.735-.137zm32.577 4.351c.678-1.758.941-3.698.704-5.68l-3.455-28.968 28.963 3.452c5.484.664 10.648-2.509 12.529-7.693 1.795-4.915 3.936-12.348 3.936-19.843 0-7.504-2.141-14.938-3.935-19.851-1.894-5.19-7.044-8.346-12.523-7.697l-28.968 3.453 3.453-28.965c.655-5.482-2.51-10.634-7.694-12.525-1.826-.667-4-1.381-6.396-2.016v-19.577h131.115c3.271 62.005 54.746 111.44 117.552 111.44h30.257c19.893 0 36.076 16.184 36.076 36.076v65.484h-23.777c-4.368-60.285-54.813-108-116.193-108-55.635 0-102.285 39.201-113.783 91.431-20.408-11.867-37.098-29.45-47.861-50.521zm161.645 177.09c-46.547 0-85.877-31.497-97.797-74.296-.034-.138-.071-.273-.112-.408-2.34-8.54-3.59-17.525-3.59-26.796 0-.236.001-.472.002-.707.004-.097.006-.195.006-.293 0-.052-.001-.104-.002-.155.043-3.833.3-7.614.758-11.335.022-.143.04-.285.053-.428 6.365-49.89 49.09-88.582 100.681-88.582 55.562 0 100.838 44.875 101.493 100.283-.002.072-.003.144-.003.217 0 .12.003.239.009.358.001.214.002.428.002.642 0 9.259-1.247 18.233-3.58 26.762-.048.154-.091.31-.129.468-11.929 42.787-51.252 74.27-97.791 74.27zm169.97-80h-55.459c.918-4.9 1.528-9.907 1.809-15h53.65z"/></svg>