<svg id="Capa_1" enable-background="new 0 0 512 512" height="512" viewBox="0 0 512 512" width="512" xmlns="http://www.w3.org/2000/svg"><path d="m366.425 407.438v-23.36c0-4.143-3.357-7.5-7.5-7.5s-7.5 3.357-7.5 7.5v22.922h-15v-239.5h15v184.577c0 4.143 3.357 7.5 7.5 7.5s7.5-3.357 7.5-7.5v-185.014c10.295-2.062 18.075-11.171 18.075-22.063 0-11.375-8.487-20.807-19.461-22.295l-12.849-18.28c-2.382-3.388-7.059-4.206-10.448-1.823-3.389 2.382-4.205 7.06-1.823 10.448l6.642 9.45h-40.951l-13.255-45h22.577l6.59 9.376c2.382 3.388 7.059 4.206 10.448 1.823 3.389-2.382 4.205-7.06 1.823-10.448l-8.83-12.563c-1.404-1.998-3.693-3.188-6.136-3.188h-20.745c-2.606-16.826-17.088-29.78-34.582-29.997v-25.003c0-4.143-3.357-7.5-7.5-7.5-4.142 0-7.5 3.357-7.5 7.5v25.003c-17.494.217-31.976 13.171-34.582 29.997h-20.745c-2.442 0-4.731 1.189-6.136 3.188l-40.077 57.018c-10.974 1.487-19.46 10.919-19.46 22.294 0 11.477 8.638 20.974 19.754 22.333v239.834c-11.116 1.359-19.754 10.856-19.754 22.333 0 11.375 8.486 20.807 19.461 22.295l15.566 22.146c2.383 3.39 7.062 4.205 10.449 1.823 3.389-2.382 4.205-7.06 1.823-10.448l-9.36-13.316h40.952l13.254 45h-22.576l-3.879-5.52c-2.382-3.389-7.06-4.203-10.449-1.822-3.389 2.382-4.205 7.06-1.823 10.448l6.12 8.706c1.404 1.998 3.693 3.188 6.136 3.188h125.654c2.442 0 4.731-1.189 6.136-3.188l40.076-57.018c10.974-1.488 19.461-10.919 19.461-22.295-.001-10.891-7.781-20-18.076-22.061zm-45-.438h-43.691v-239.5h43.691zm-129.171 0v-239.5h40.479v239.5zm-30-239.5h15v239.5h-15zm85.479 0h15v239.5h-15zm-12.451-90h41.436l13.255 45h-67.945zm13.665-30h14.105c9.389 0 17.32 6.361 19.711 15h-53.527c2.391-8.639 10.322-15 19.711-15zm-51.878 30h22.576l-13.254 45h-40.952zm-54.569 67.5c0-4.136 3.364-7.5 7.5-7.5h212c4.136 0 7.5 3.364 7.5 7.5s-3.364 7.5-7.5 7.5h-212c-4.136 0-7.5-3.364-7.5-7.5zm92.782 352-13.254-45h67.945l-13.255 45zm79.65 0h-22.577l13.255-45h40.952zm47.068-60h-212c-4.136 0-7.5-3.364-7.5-7.5s3.364-7.5 7.5-7.5h212c4.136 0 7.5 3.364 7.5 7.5s-3.364 7.5-7.5 7.5z"/></svg>