<svg id="Capa_1" enable-background="new 0 0 512 512" height="512" viewBox="0 0 512 512" width="512" xmlns="http://www.w3.org/2000/svg"><path d="m371.304 343.633-20.905-20.905c-2.93-2.928-7.678-2.928-10.607 0-2.929 2.93-2.929 7.678 0 10.607l12.969 12.968-49.379 20.454-19.637-19.638 20.453-49.379 12.968 12.969c2.93 2.928 7.678 2.928 10.607 0 2.929-2.93 2.929-7.678 0-10.607l-20.905-20.905c-1.479-1.468-3.398-2.196-5.304-2.196h-23.064v-10.831c36.538-13.922 131-60.353 131-167.419 0-40.097-27.048-69.925-78.22-86.257-37.136-11.854-73.644-12.472-75.179-12.493-.069-.001-.133-.001-.201 0-1.535.021-38.043.639-75.18 12.492-51.172 16.332-78.22 46.16-78.22 86.257 0 40.417 13.525 76.287 40.2 106.612 2.736 3.109 7.476 3.414 10.585.679 3.11-2.736 3.414-7.476.679-10.585-24.196-27.506-36.464-60.043-36.464-96.706 0-79.939 134.136-83.656 138.502-83.749 4.432.091 138.498 3.721 138.498 83.749 0 95.1-82.934 138.216-118.565 152.325-3.765-7.171-11.288-12.075-19.935-12.075-8.648 0-16.172 4.904-19.937 12.078-15.077-5.958-38.045-16.86-59.864-34.44-3.228-2.601-7.949-2.092-10.546 1.134-2.599 3.226-2.091 7.947 1.134 10.546 24.746 19.939 50.82 31.807 66.713 37.854v10.828h-23.063c-2.041 0-3.915.818-5.304 2.196l-64.437 64.437c-1.381 1.371-2.196 3.34-2.196 5.304v91.127c0 2.461 1.287 4.231 1.24 4.131.297.451.646.865.956 1.173l20.905 20.905c2.931 2.929 7.678 2.928 10.607 0 2.929-2.93 2.929-7.678 0-10.607l-12.969-12.968 49.379-20.454 19.637 19.638-20.453 49.379-12.968-12.969c-2.93-2.928-7.678-2.928-10.607 0-2.929 2.93-2.929 7.678 0 10.607l20.905 20.905c2.013 1.998 4.477 2.169 4.377 2.139.275.035.618.058.927.058h91.127c2.065 0 3.885-.788 5.304-2.196l64.437-64.437c1.288-1.279 2.196-3.204 2.196-5.304v-91.127c0-2.058-.862-3.98-2.196-5.304zm-67.107 147.628-20.454-49.379 19.637-19.638 49.379 20.454zm4.923-82.876v-27.77l49.38-20.454v68.678zm-60.62-146.885c0-.07.001-.14.003-.209.002-.044.004-.088.005-.132.179-3.978 3.471-7.158 7.492-7.158s7.313 3.181 7.492 7.159c.001.043.003.087.005.13.002.07.003.141.003.211v15.499h-15zm41.839 30.5-20.454 49.38h-27.77l-20.454-49.38zm-81.719 74.757-49.379-20.454 48.563-48.563 20.454 49.379zm-55.12-6.595 49.38 20.454v27.77l-49.38 20.454zm64.38 18.548 22.33-22.33h31.58l22.33 22.33v31.58l-22.33 22.33h-31.58l-22.33-22.33zm3.781 118.29 20.454-49.38h27.77l20.454 49.38z"/></svg>