<svg id="Capa_1" enable-background="new 0 0 512 512" height="512" viewBox="0 0 512 512" width="512" xmlns="http://www.w3.org/2000/svg"><path d="m494.127 393.453h-7.777c-6.429 0-12.598 2.69-16.923 7.382-.934.679-17.364 22.642-49.024 22.642h-12.948l-18.029-48.66c6.396-1.91 11.071-7.847 11.071-14.855v-30c0-8.547-6.953-15.5-15.5-15.5h-17.93l-66.018-178.179c-1.439-3.885-5.752-5.865-9.638-4.428-3.884 1.439-5.866 5.755-4.427 9.639l64.087 172.968h-37.471v-2.864c0-9.449-7.687-17.137-17.136-17.137h-80.725c-9.448 0-17.136 7.688-17.136 17.137v2.864h-37.674l94.753-255.733c.065-.175.084-.228.317-.228s.252.053.317.228l19.551 52.769c1.439 3.884 5.751 5.867 9.638 4.428 3.884-1.439 5.866-5.755 4.427-9.639l-19.551-52.769c-2.253-6.086-7.898-10.018-14.381-10.018s-12.128 3.932-14.382 10.017l-96.684 260.944h-17.93c-8.547 0-15.5 6.953-15.5 15.5v30c0 7.009 4.676 12.946 11.071 14.855l-18.029 48.66h-12.574c-31.322 0-48.236-21.99-48.656-22.299-4.345-4.909-10.626-7.725-17.233-7.725h-8.897c-12.389 0-20.685 12.576-15.73 23.775 13.782 31.148 45.044 51.273 79.644 51.273h302.82c4.142 0 7.5-3.357 7.5-7.5s-3.358-7.5-7.5-7.5h-302.82c-28.667 0-54.545-16.62-65.927-42.342-.576-1.302.482-2.705 2.014-2.705h8.897c2.314 0 4.502.972 5.999 2.664.603.443 20.977 27.359 59.89 27.359 13.261 0 290.373.004 310.264.004.08 0 .159-.001.239-.004h17.927c22.065 0 43.211-9.21 58.017-25.268l2.034-2.206c1.495-1.62 3.643-2.55 5.896-2.55h7.777c2.028 0 3.439 1.917 2.626 3.68-11.585 25.13-37.291 41.367-65.487 41.367h-15.039c-4.142 0-7.5 3.357-7.5 7.5s3.358 7.5 7.5 7.5h15.039c34.029 0 65.082-19.66 79.109-50.088 5.377-11.664-3.241-24.958-16.248-24.958zm-109.131-63.992c.276 0 .5.225.5.5v30c0 .275-.224.5-.5.5h-5.94c-.11-.002-.22-.002-.331 0h-65.125v-31zm-171.393-17.864c0-1.178.958-2.137 2.136-2.137h80.725c1.178 0 2.137.959 2.137 2.137 0 11.287-.001 61.352 0 66.727 0 1.178-.958 2.136-2.137 2.136h-80.725c-1.178 0-2.136-.958-2.136-2.136zm-75.271 63.864h21.439c4.142 0 7.5-3.357 7.5-7.5s-3.358-7.5-7.5-7.5h-26.445c-.138-.004-.276-.004-.413 0h-5.91c-.276 0-.5-.225-.5-.5v-30c0-.275.224-.5.5-.5 6.167.001 64.531 0 71.6 0v31h-6.525c-4.142 0-7.5 3.357-7.5 7.5s3.358 7.5 7.5 7.5h6.525v2.862c0 9.448 7.687 17.136 17.136 17.136h80.725c9.449 0 17.136-7.688 17.136-17.136v-2.862h60.067l17.79 48.016h-270.915z"/><path d="m236.102 365.46h39.999c4.142 0 7.5-3.357 7.5-7.5v-26c0-4.143-3.358-7.5-7.5-7.5h-39.999c-4.142 0-7.5 3.357-7.5 7.5v26c.001 4.143 3.358 7.5 7.5 7.5zm7.5-26h24.999v11h-24.999z"/></svg>