<svg id="Capa_1" enable-background="new 0 0 512 512" height="512" viewBox="0 0 512 512" width="512" xmlns="http://www.w3.org/2000/svg"><path d="m489.5 404.032h-41.53c-4.142 0-7.5 3.357-7.5 7.5s3.358 7.5 7.5 7.5h41.53c4.135 0 7.5 3.351 7.5 7.47 0 4.113-3.365 7.46-7.5 7.46h-356.02c-10.404 0-20.266 2.31-29.369 6.537-7.681 3.567-14.687 8.442-20.817 14.483-8.092 7.948-18.802 12.027-30.172 11.469-20.543-.991-37.273-17.827-38.088-38.328-.438-10.975 3.508-21.376 11.109-29.286 7.643-7.954 17.934-12.335 28.977-12.335 10.724 0 20.807 4.172 28.392 11.748 13.425 13.401 30.859 20.782 49.089 20.782h283.58c4.142 0 7.5-3.357 7.5-7.5s-3.358-7.5-7.5-7.5h-50.232v-276.581c0-4.143-3.358-7.5-7.5-7.5h-51.516v-12.687c21.407-1.985 36.033-8.871 43.571-20.546 10-15.487 3.818-33.243.698-40.154l-.477-1.048c-1.733-3.762-6.188-5.408-9.95-3.675-3.762 1.732-5.408 6.187-3.675 9.95l.429.94c1.647 3.648 6.542 16.296.373 25.849-6.034 9.346-21.516 14.285-44.772 14.285-.046 0-.092 0-.139.001-.151.006-16.414.051-24.625-8.916-3.952-4.315-5.475-10.144-4.655-17.82 2.652-24.831 40.667-43.807 54.064-49.754 1.275 2.141 2.853 4.814 4.579 7.799 2.075 3.585 6.663 4.808 10.248 2.736 3.585-2.074 4.81-6.663 2.736-10.248-3.121-5.393-5.768-9.802-7.067-11.949-2.492-4.116-7.538-5.798-12.001-3.998-14.871 6.004-63.685 28.347-67.474 63.822-2.892 27.08 16.404 42.577 43.137 43.312v12.099h-53.485c-4.142 0-7.5 3.357-7.5 7.5v32.324c0 4.143 3.358 7.5 7.5 7.5s7.5-3.357 7.5-7.5v-24.824h105v268.996h-105v-211.863c0-4.143-3.358-7.5-7.5-7.5s-7.5 3.357-7.5 7.5v211.95h-98.348c-14.228 0-27.898-5.823-38.49-16.395-10.416-10.405-24.263-16.135-38.99-16.135-15.163 0-29.294 6.017-39.792 16.941-10.457 10.881-15.884 25.184-15.283 40.276 1.121 28.196 24.117 51.35 52.35 52.713 15.481.746 30.53-5.062 41.419-15.76 2.474-2.437 5.12-4.635 7.92-6.579 3.13 12.11 9.473 23.291 18.425 32.252 13.331 13.32 31.046 20.655 49.881 20.655h237.92c36.363 0 66.387-27.657 70.144-63.039h11.396c12.407 0 22.5-10.075 22.5-22.46 0-12.389-10.093-22.469-22.5-22.469zm-81.54 92.968h-237.92c-14.831 0-28.78-5.776-39.274-16.261-7.86-7.868-13.167-17.906-15.257-28.705.019-.007.037-.013.056-.02 5.801-2.022 11.747-3.054 17.915-3.054h329.516c-3.672 27.092-26.953 48.04-55.036 48.04z"/><path d="m29.999 426.511c0 13.818 11.269 25.06 25.12 25.06s25.12-11.242 25.12-25.06c0-13.829-11.269-25.08-25.12-25.08s-25.12 11.251-25.12 25.08zm35.24 0c0 5.548-4.54 10.06-10.12 10.06s-10.12-4.513-10.12-10.06c0-5.559 4.54-10.08 10.12-10.08s10.12 4.521 10.12 10.08z"/></svg>