<svg id="Capa_1" enable-background="new 0 0 512 512" height="512" viewBox="0 0 512 512" width="512" xmlns="http://www.w3.org/2000/svg"><path d="m342.135 326.491c7.952-4.316 13.365-12.758 13.365-22.484 0-14.035-11.419-25.454-25.454-25.454h-66.546v-15.239c6.491-9.257 22.327-16.565 28.179-18.691 2.26-.815 3.992-2.665 4.659-4.974 14.097-48.796 17.694-94.877 10.694-136.962-.68-4.085-4.544-6.854-8.629-6.168-4.086.68-6.848 4.543-6.168 8.629 6.463 38.852 3.331 81.494-9.306 126.807-4.503 1.892-12.207 5.515-19.43 10.759v-213.491c6.806 10.325 15.076 25.534 21.467 45.603 1.257 3.947 5.477 6.129 9.422 4.871 3.947-1.257 6.128-5.476 4.871-9.422-14.295-44.892-37.089-67.243-38.052-68.173-2.907-2.803-7.51-2.803-10.416 0-.846.816-20.883 20.445-35.189 59.774-13.042 35.858-23.62 95.808.059 177.772.667 2.308 2.4 4.157 4.66 4.973 5.848 2.111 21.667 9.387 28.178 18.69v15.24h-24.577c-4.142 0-7.5 3.357-7.5 7.5s3.358 7.5 7.5 7.5h106.123c5.765 0 10.454 4.689 10.454 10.546 0 5.765-4.689 10.454-10.454 10.454-6.145-.002 20.752 0-148.091 0-5.765 0-10.455-4.689-10.455-10.546 0-5.765 4.69-10.454 10.455-10.454h9.814c4.142 0 7.5-3.357 7.5-7.5s-3.358-7.5-7.5-7.5h-9.814c-14.036 0-25.455 11.419-25.455 25.546 0 9.662 5.412 18.083 13.363 22.394-33.14 19.534-38.363 52.693-38.363 84.007 0 22.455 2.628 50.9 23.12 71.727 19.715 20.035 52.876 29.775 101.381 29.775 47.482 0 80.216-9.315 100.072-28.479 2.98-2.876 3.065-7.624.188-10.604-2.876-2.981-7.625-3.066-10.604-.188-16.924 16.331-46.25 24.271-89.656 24.271-44.276 0-73.94-8.273-90.688-25.294-13.01-13.222-18.812-32.099-18.812-61.206 0-40.065 9.55-69.184 55.98-80.947h107.04c46.43 11.762 55.98 40.881 55.98 80.947 0 15.795-1.609 27.954-5.063 38.264-1.316 3.928.801 8.178 4.729 9.494.79.265 1.594.391 2.384.391 3.136 0 6.06-1.982 7.11-5.119 3.985-11.892 5.841-25.565 5.841-43.029-.001-31.316-5.224-64.477-38.366-84.01zm-113.064-94.537c-21.119-75.78-11.559-130.971.32-164.094 5.975-16.662 13.111-29.551 19.109-38.647v213.5c-7.222-5.244-14.926-8.867-19.429-10.759z"/></svg>