<svg id="Capa_1" enable-background="new 0 0 512 512" height="512" viewBox="0 0 512 512" width="512" xmlns="http://www.w3.org/2000/svg"><path d="m430.099 466.292c-31.802-11.849-45.698-36.351-51.713-57.046l.875-.265c27.978-8.468 46.777-33.797 46.777-63.029v-124.853c0-5.151-1.707-9.911-4.583-13.744 4.927-4.312 8.045-10.652 8.045-17.719 0-12.945-10.532-23.478-23.477-23.478h-9.733c-2.963-19.044-8.3-34.697-16.245-47.69-2.161-3.536-6.779-4.649-10.31-2.486-3.534 2.16-4.647 6.777-2.486 10.311 6.583 10.767 11.14 23.868 13.847 39.866h-250.211c6.232-37.979 24.73-75.381 96.723-82.972 4.719 6.735 16.544 31.934 19.916 38.673 1.708 3.416 3.474 6.948 8.263 6.948 4.755 0 6.529-3.493 8.246-6.872 3.119-6.139 15.531-32.086 20.314-38.763 27.068 2.838 47.807 9.902 63.313 21.551 3.31 2.487 8.013 1.821 10.501-1.491s1.82-8.013-1.491-10.501c-17.478-13.132-40.243-21.114-69.469-24.339-2.001-5.665-6.373-17.98-10.845-30.18-3.567-9.729-6.505-17.496-8.73-23.084-4.263-10.7-6.028-15.129-11.839-15.129-5.842 0-7.583 4.44-11.788 15.17-2.191 5.589-5.08 13.357-8.587 23.091-4.385 12.171-8.67 24.458-10.642 30.144-36.511 4.036-63.21 15.563-81.505 35.161-14.539 15.575-23.371 35.582-27.554 62.593h-9.73c-12.945 0-23.477 10.532-23.477 23.522 0 7.042 3.117 13.37 8.044 17.677-2.876 3.833-4.582 8.592-4.582 13.741v124.854c0 29.232 18.799 54.562 46.777 63.029l.873.264c-6.017 20.699-19.912 45.201-51.713 57.048-6.199 2.313-9.951 8.285-9.337 14.86.617 6.598 5.43 11.788 11.972 12.916 38.747 6.697 112.546 17.93 171.454 17.93 58.924 0 132.728-11.233 171.473-17.93 6.54-1.127 11.35-6.315 11.969-12.909.617-6.576-3.131-12.55-9.335-14.869zm-174.261-440.115c4.636 12.071 11.155 29.99 17.203 47.156-3.49 4.482-8.321 13.39-17.201 31.343-8.729-17.944-13.479-26.844-16.913-31.321 5.939-17.167 12.347-35.093 16.911-47.178zm-149.857 154.981h300.042c4.675 0 8.477 3.803 8.477 8.522 0 4.675-3.803 8.478-8.477 8.478h-300.042c-4.675 0-8.477-3.803-8.477-8.522 0-4.675 3.802-8.478 8.477-8.478zm150.011 315.842c-56.808 0-128.157-10.723-166.955-17.377 36.151-14.216 52.032-42.292 58.94-66.031l13.853 4.192c3.965 1.196 8.151-1.042 9.351-5.006 1.199-3.965-1.042-8.151-5.006-9.352-1.772-.536 7.137 2.16-29.088-8.803-21.606-6.539-36.123-26.099-36.123-48.672v-124.852c0-4.378 3.562-7.94 7.94-7.94h294.193c4.378 0 7.939 3.563 7.939 7.94v124.854c0 22.573-14.517 42.133-36.122 48.672l-105.928 32.057c-8.497 2.571-17.478 2.57-25.973 0l-45.84-13.872c-3.96-1.197-8.151 1.041-9.351 5.007-1.199 3.964 1.042 8.15 5.007 9.351l45.84 13.872c11.117 3.363 23.095 3.498 34.662 0l90.691-27.445c6.905 23.733 22.784 51.805 58.945 66.031-38.754 6.645-110.133 17.374-166.975 17.374z"/><path d="m137.503 228.296c-12.406 0-22.5 10.094-22.5 22.5v102.001c0 12.406 10.094 22.499 22.5 22.499s22.5-10.093 22.5-22.499v-102.001c0-12.406-10.093-22.5-22.5-22.5zm7.5 124.501c0 4.135-3.364 7.499-7.5 7.499s-7.5-3.364-7.5-7.499v-102.001c0-4.136 3.364-7.5 7.5-7.5s7.5 3.364 7.5 7.5z"/><path d="m374.501 375.296c12.406 0 22.5-10.093 22.5-22.499v-102.001c0-12.406-10.094-22.5-22.5-22.5s-22.5 10.094-22.5 22.5v102.001c0 12.406 10.094 22.499 22.5 22.499zm-7.5-124.5c0-4.136 3.364-7.5 7.5-7.5s7.5 3.364 7.5 7.5v102.001c0 4.135-3.364 7.499-7.5 7.499s-7.5-3.364-7.5-7.499z"/><path d="m217.503 366.065v-115.27c0-12.406-10.094-22.5-22.5-22.5s-22.5 10.094-22.5 22.5v115.27c0 12.406 10.094 22.5 22.5 22.5s22.5-10.093 22.5-22.5zm-30 0v-115.27c0-4.136 3.364-7.5 7.5-7.5s7.5 3.364 7.5 7.5v115.27c0 4.136-3.364 7.5-7.5 7.5s-7.5-3.364-7.5-7.5z"/><path d="m317.001 388.565c12.406 0 22.5-10.094 22.5-22.5v-115.27c0-12.406-10.094-22.5-22.5-22.5s-22.499 10.094-22.499 22.5v115.27c0 12.407 10.093 22.5 22.499 22.5zm-7.499-137.769c0-4.136 3.364-7.5 7.499-7.5 4.136 0 7.5 3.364 7.5 7.5v115.27c0 4.136-3.364 7.5-7.5 7.5-4.135 0-7.499-3.364-7.499-7.5z"/><path d="m256.05 416.053c12.38 0 22.452-10.072 22.452-22.452v-105.626c0-4.143-3.357-7.5-7.5-7.5s-7.5 3.357-7.5 7.5v105.626c0 4.109-3.343 7.452-7.549 7.452-4.108 0-7.451-3.343-7.451-7.452v-143.097c0-4.108 3.343-7.451 7.548-7.451 4.109 0 7.452 3.343 7.452 7.451v5.496c0 4.143 3.357 7.5 7.5 7.5s7.5-3.357 7.5-7.5v-5.496c0-12.38-10.072-22.451-22.549-22.451-12.38 0-22.451 10.071-22.451 22.451v143.097c.001 12.379 10.072 22.452 22.548 22.452z"/></svg>