<svg id="Capa_1" enable-background="new 0 0 512 512" height="512" viewBox="0 0 512 512" width="512" xmlns="http://www.w3.org/2000/svg"><path d="m402.684 479.223-38.334-54.366c-7.036-9.978-17.975-16.726-30.013-18.513l-20.827-3.093v-147.251c0-4.143-3.357-7.5-7.5-7.5s-7.5 3.357-7.5 7.5v145.023l-85-12.622v-191.811h35v138.256c0 4.143 3.357 7.5 7.5 7.5s7.5-3.357 7.5-7.5v-138.256h35v27.385c0 4.143 3.357 7.5 7.5 7.5s7.5-3.357 7.5-7.5v-27.389h8.776c.903 0 1.578.662 1.908 1.283 5.49 10.312 16.148 16.717 27.815 16.717 17.051 0 31.18-13.866 31.495-30.909.329-17.849-14.604-32.091-32.037-32.091h-65.957v-90.209c0-6.095-2.829-11.542-7.242-15.096 3.905-4.878 6.242-11.061 6.242-17.781 0-15.715-12.785-28.5-28.5-28.5s-28.5 12.785-28.5 28.5c0 6.72 2.338 12.903 6.242 17.781-4.414 3.555-7.242 9.001-7.242 15.096v10.546c0 4.143 3.357 7.5 7.5 7.5s7.5-3.357 7.5-7.5v-10.546c0-2.413 1.964-4.377 4.378-4.377h20.244c2.414 0 4.378 1.964 4.378 4.377v90.208h-29v-47.293c0-4.143-3.357-7.5-7.5-7.5s-7.5 3.357-7.5 7.5v47.294h-65.958c-17.43 0-32.366 14.239-32.037 32.091.315 17.043 14.444 30.909 31.495 30.909 11.667 0 22.325-6.405 27.815-16.718.33-.62 1.005-1.282 1.908-1.282h8.776v189.588l-4.64-.689c-18.41-2.732-36.816 6.435-45.799 22.813l-39.978 72.908c-3.575 6.521-3.448 14.234.341 20.633 3.767 6.362 10.418 10.16 17.792 10.16h259.563c7.748 0 14.782-4.285 18.359-11.183 3.598-6.936 3.037-15.211-1.463-21.593zm-146.674-464.223c7.444 0 13.5 6.056 13.5 13.5s-6.056 13.5-13.5 13.5-13.5-6.056-13.5-13.5 6.056-13.5 13.5-13.5zm-81.425 175.818c-2.879 5.408-8.464 8.768-14.575 8.768-8.932 0-16.332-7.262-16.497-16.187-.174-9.349 7.896-16.813 17.039-16.813h190.916c9.139 0 17.213 7.462 17.039 16.813-.165 8.925-7.565 16.187-16.497 16.187-6.111 0-11.696-3.359-14.575-8.767-3.032-5.695-8.836-9.233-15.148-9.233h-132.553c-6.313 0-12.117 3.538-15.149 9.232zm216.247 303.095c-.481.928-1.937 3.087-5.043 3.087h-259.562c-2.911 0-4.386-1.96-4.885-2.803-.51-.86-1.539-3.146-.096-5.778l39.978-72.907c5.991-10.926 18.248-17.005 30.443-15.188 49.742 7.386 111.273 16.523 140.467 20.858 8 1.188 15.273 5.678 19.956 12.319l38.334 54.366c1.843 2.612.899 5.098.408 6.046z"/></svg>