<?xml version="1.0" encoding="utf-8"?>
<!-- Generator: Adobe Illustrator 22.0.0, SVG Export Plug-In . SVG Version: 6.00 Build 0)  -->
<svg version="1.1" id="Capa_1" xmlns="http://www.w3.org/2000/svg" xmlns:xlink="http://www.w3.org/1999/xlink" x="0px" y="0px"
	 viewBox="0 0 512 512" style="enable-background:new 0 0 512 512;" xml:space="preserve">
<style type="text/css">
	.st0{fill:#FFFFFF;}
</style>
<path class="st0" d="M511.4,319.4l-37.9-114.9L511.1,103c2.8-7.5-2.8-15.5-10.8-15.5H291V42c0-4.2-3.4-7.5-7.5-7.5c0,0,0,0,0,0h-157
	c-4.1,0-7.5,3.4-7.5,7.5s3.4,7.5,7.5,7.5h135.4l-19,15H15v-15h81.2c4.1,0,7.5-3.4,7.5-7.5s-3.4-7.5-7.5-7.5H45v-12
	C45,10,34.9,0,22.5,0C10.1,0,0,10.1,0,22.5v482c0,4.1,3.4,7.5,7.5,7.5h30c4.1,0,7.5-3.4,7.5-7.5V351.8c0-4.1-3.4-7.5-7.5-7.5
	s-7.5,3.4-7.5,7.5V497H15V281.5h15v38.9c0,4.1,3.4,7.5,7.5,7.5s7.5-3.4,7.5-7.5v-38.9h164V327c0,4.1,3.4,7.5,7.5,7.5h231.4
	c4.1,0,7.5-3.4,7.5-7.5s-3.4-7.5-7.5-7.5H224v-15h240.5c5.1,0,8.7-5,7.1-9.8l-27-81.9c-1.9-5.7-1.8-11.9,0.3-17.5l25-67.6
	c1.8-4.9-1.8-10.1-7-10.1H224v-15h271.3L459,200.4c-0.9,2.4-0.9,5.1-0.1,7.6l36.8,111.5h-15.3c-4.1,0-7.5,3.4-7.5,7.5
	s3.4,7.5,7.5,7.5h20.1C508.3,334.5,513.9,326.8,511.4,319.4L511.4,319.4z M224,79.5l-12.1,9.6c0,0,0,0,0,0l0,0
	c-2.8,2.2-2.9,5.4-2.8,5.3c0,0.5,0-6.2,0,142.1H15v-157L224,79.5L224,79.5z M235.7,198.8c2.8,2.8,6.6,4.1,10.5,3.6l29.3-3.5
	c2.9,9.2,2.9,15.5,0,24.7l-29.4-3.5c-3.9-0.5-7.7,0.9-10.5,3.6c-2.8,2.8-4.1,6.6-3.6,10.5l3.5,29.3c-3.1,1-7.4,2.1-11.6,2.2v-109
	c4.2,0.1,8.5,1.2,11.6,2.2l-3.5,29.3C231.6,192.2,232.9,196,235.7,198.8L235.7,198.8z M22.5,15c4.1,0,7.5,3.3,7.5,7.5v12H15v-12
	C15,18.4,18.4,15,22.5,15z M15,251.5h194v15H15V251.5z M452.2,132.5L430.9,190c-3.3,8.8-3.4,18.5-0.5,27.4l23.8,72H224v-8.7
	c7.2-0.1,14.3-2.2,19.1-3.9c5.2-1.9,8.4-7,7.7-12.5l-3.5-29l29,3.5c5.5,0.7,10.6-2.5,12.5-7.7c5.2-14.3,5.2-25.4,0-39.7
	c-1.9-5.2-7-8.4-12.5-7.7l-29,3.5l3.5-29c0.7-5.5-2.5-10.6-7.7-12.5c-4.7-1.7-11.8-3.8-19.1-3.9v-9.2L452.2,132.5z M250.1,78
	c0.1-0.1,0.2-0.2,0.3-0.3L276,57.5v30h-37.9L250.1,78z"/>
</svg>
