<?xml version="1.0" encoding="utf-8"?>
<!-- Generator: Adobe Illustrator 22.0.0, SVG Export Plug-In . SVG Version: 6.00 Build 0)  -->
<svg version="1.1" id="Capa_1" xmlns="http://www.w3.org/2000/svg" xmlns:xlink="http://www.w3.org/1999/xlink" x="0px" y="0px"
	 viewBox="0 0 512 512" style="enable-background:new 0 0 512 512;" xml:space="preserve">
<style type="text/css">
	.st0{fill:#FFFFFF;}
</style>
<path class="st0" d="M490.6,457.7V288.4c0-4.1-3.4-7.5-7.5-7.5s-7.5,3.4-7.5,7.5V457h-87V240.8h87V256c0,4.1,3.4,7.5,7.5,7.5
	s7.5-3.4,7.5-7.5v-15.2h0.3c4.4,0,8.4-2.2,10.7-5.9c2.3-3.7,2.7-8.2,0.8-12.2L443.7,95.2c-2.1-4.6-6.5-7.4-11.6-7.4
	c-5,0-9.5,2.8-11.6,7.4l-58.8,127.6c-1.8,4-1.5,8.5,0.8,12.2c2.4,3.7,6.4,5.9,10.7,5.9h0.2v26.6H349c-2.6-8.9-9.6-16-18.5-18.5V149
	c4.3,0,8.3-2.3,10.4-6.1c2.1-3.8,2.1-8.4-0.1-12.1L266.3,5.9C264.1,2.2,260.3,0,256,0s-8.1,2.2-10.3,5.9l-19.7,33
	c-2.1,3.6-1,8.2,2.6,10.3c3.6,2.1,8.2,1,10.3-2.6L256,17.8L325.3,134H186.7l35.7-60c2.1-3.6,1-8.2-2.6-10.3c-3.6-2.1-8.2-1-10.3,2.6
	l-38.4,64.4c-2.2,3.7-2.3,8.4-0.1,12.1c2.1,3.7,6.1,6.1,10.4,6.1v99.9c-8.9,2.6-16,9.6-18.5,18.5h-24.6v-26.6h0.3
	c4.4,0,8.4-2.2,10.7-5.9c2.3-3.7,2.7-8.2,0.8-12.2L91.5,95.2c-2.1-4.6-6.5-7.4-11.6-7.4s-9.5,2.8-11.6,7.4L9.6,222.7
	c-1.8,4-1.5,8.5,0.8,12.2c2.4,3.7,6.4,5.9,10.7,5.9h0.2v175c0,4.1,3.4,7.5,7.5,7.5s7.5-3.4,7.5-7.5v-175h87V457h-87v-8.8
	c0-4.1-3.4-7.5-7.5-7.5s-7.5,3.4-7.5,7.5v9.5C9.1,460.5,0,471.4,0,484.5C0,499.7,12.3,512,27.5,512h457c15.2,0,27.5-12.3,27.5-27.5
	C512,471.4,502.8,460.4,490.6,457.7z M432.1,105.9l55.2,119.9H376.9L432.1,105.9z M24.7,225.8l55.2-119.9l55.2,119.9H24.7z
	 M297,267.4H282c-3.3-11.3-13.7-19.6-26-19.6s-22.8,8.3-26,19.6H215c-2.6-8.9-9.6-16-18.5-18.5V149h119v99.9
	C306.6,251.5,299.5,258.5,297,267.4z M169.4,282.4c4.1,0,7.5-3.4,7.5-7.5c0-6,4.6-11.9,12.3-12.1c6.6,0.1,11.9,5.5,11.9,12.1
	c0,4.1,3.4,7.5,7.5,7.5h27.8c4.1,0,7.5-3.4,7.5-7.5c0-6.7,5.4-12.1,12.1-12.1c6.7,0,12.1,5.4,12.1,12.1c0,4.1,3.4,7.5,7.5,7.5h27.8
	c4.1,0,7.5-3.4,7.5-7.5c0-6.6,5.3-12,11.9-12.1c0.1,0,0.1,0,0.2,0c0.1,0,0.1,0,0.2,0c6.6,0.1,11.9,5.5,11.9,12.1
	c0,4.1,3.4,7.5,7.5,7.5h31v15H138.4v-15H169.4z M138.4,312.4h235.2V457h-52.1v-62.5c0-36.1-29.4-65.5-65.5-65.5
	s-65.5,29.4-65.5,65.5V457h-52.1L138.4,312.4z M306.5,457h-101v-62.5c0-27.8,22.7-50.5,50.5-50.5s50.5,22.7,50.5,50.5V457z
	 M484.5,497h-457c-6.9,0-12.5-5.6-12.5-12.5S20.6,472,27.5,472h457c6.9,0,12.5,5.6,12.5,12.5S491.4,497,484.5,497z"/>
<path class="st0" d="M58.1,405.7c0,6.7,5.4,12.1,12.1,12.1h22c6.7,0,12.1-5.4,12.1-12.1v-17.9c0-12.7-10.4-23.1-23.1-23.1
	s-23.1,10.4-23.1,23.1L58.1,405.7L58.1,405.7z M73.1,387.8c0-4.5,3.6-8.1,8.1-8.1s8.1,3.6,8.1,8.1v15H73.1V387.8z"/>
<path class="st0" d="M433.5,364.7c-12.7,0-23.1,10.4-23.1,23.1v17.9c0,6.7,5.4,12.1,12.1,12.1h22c6.7,0,12.1-5.4,12.1-12.1v-17.9
	C456.6,375.1,446.2,364.7,433.5,364.7z M441.6,402.9h-16.2v-15c0-4.5,3.6-8.1,8.1-8.1s8.1,3.6,8.1,8.1L441.6,402.9L441.6,402.9z"/>
<path class="st0" d="M92.2,334.1c6.7,0,12.1-5.4,12.1-12.1v-17.9c0-12.7-10.4-23.1-23.1-23.1s-23.1,10.4-23.1,23.1V322
	c0,6.7,5.4,12.1,12.1,12.1H92.2z M73.1,304.1c0-4.5,3.6-8.1,8.1-8.1s8.1,3.6,8.1,8.1v15H73.1V304.1z"/>
<path class="st0" d="M456.6,304.1c0-12.7-10.4-23.1-23.1-23.1s-23.1,10.4-23.1,23.1V322c0,6.7,5.4,12.1,12.1,12.1h22
	c6.7,0,12.1-5.4,12.1-12.1L456.6,304.1L456.6,304.1z M441.6,319.1h-16.2v-15c0-4.5,3.6-8.1,8.1-8.1s8.1,3.6,8.1,8.1L441.6,319.1
	L441.6,319.1z"/>
<path class="st0" d="M256,171.8c-12.7,0-23.1,10.4-23.1,23.1v17.9c0,6.7,5.4,12.1,12.1,12.1h22c6.7,0,12.1-5.4,12.1-12.1v-17.9
	C279.1,182.2,268.7,171.8,256,171.8z M264.1,210h-16.2v-15c0-4.5,3.6-8.1,8.1-8.1s8.1,3.6,8.1,8.1L264.1,210L264.1,210z"/>
</svg>
