<?xml version="1.0" encoding="utf-8"?>
<!-- Generator: Adobe Illustrator 22.0.0, SVG Export Plug-In . SVG Version: 6.00 Build 0)  -->
<svg version="1.1" id="Capa_1" xmlns="http://www.w3.org/2000/svg" xmlns:xlink="http://www.w3.org/1999/xlink" x="0px" y="0px"
	 viewBox="0 0 512 512" style="enable-background:new 0 0 512 512;" xml:space="preserve">
<style type="text/css">
	.st0{fill:#FFFFFF;}
</style>
<path class="st0" d="M494.1,445.3c-0.9-3.8-3.5-7-7.1-8.7c-22.4-10.6-38.7-35.1-48.5-73c-9.9-38.2-12.8-89-8.8-150.8
	c4.2-64.7-26.6-113.1-53.2-142.3c-2.8-3.1-7.5-3.3-10.6-0.5c-3.1,2.8-3.3,7.5-0.5,10.6c24.7,27.1,53.2,71.8,49.3,131.2
	c-8.4,129.5,13.5,211.4,63.4,237.2c-3.7,3.3-9,4.4-15.9,3.3c-26.7-4.2-49.1,5.7-58.4,25.7c-3.7,7.9-12.8,14.5-23.1,17
	c-6.4,1.5-19,2.6-30.7-6.8c-14.3-11.5-28.8-28.4-52.7-9.6c-15,11.8-30,18.5-41.3,18.5s-26.3-6.7-41.3-18.5
	c-23.6-18.5-37.8-2.3-52.7,9.6c-11.8,9.4-24.3,8.3-30.7,6.8c-10.4-2.4-19.4-9.1-23.1-17c-0.7-1.4-1.4-2.8-2.2-4.1
	c-2.1-3.5-6.8-4.7-10.3-2.5c-3.5,2.1-4.7,6.8-2.5,10.3c0.5,0.9,1,1.8,1.4,2.7c5.6,12.1,18.4,21.7,33.3,25.2
	c15.7,3.7,31.1,0.2,43.5-9.7c16.1-12.8,20.6-20.2,34.1-9.6c17.8,14,35.8,21.7,50.6,21.7s32.8-7.7,50.6-21.7
	c13.2-10.4,17.3-3.9,34.1,9.6c12.4,9.9,27.8,13.3,43.5,9.7c14.9-3.5,27.7-13.2,33.3-25.2c6.4-13.7,22.7-20.3,42.5-17.2
	c18.2,2.8,27.7-5.6,31.8-10.8C494.2,453.1,495.1,449.2,494.1,445.3L494.1,445.3z"/>
<path class="st0" d="M75.7,452.9c-8.1-1.8-16.8-2.1-26-0.6c-6.9,1.1-12.2,0-15.9-3.3c49.9-25.8,71.8-107.7,63.4-237.2
	c-4-60.7,25.8-106.1,51.5-133.6C187.4,37,235.9,15,256,15c17.3,0,54.8,16.6,87.5,44.5c3.2,2.7,7.9,2.3,10.6-0.9
	c2.7-3.2,2.3-7.9-0.9-10.6c-37.1-31.5-77-48-97.3-48c-26.2,0-78.9,26-118.2,68c-27.7,29.6-59.9,78.7-55.5,144.8
	c4,61.8,1.1,112.6-8.8,150.8c-9.8,37.9-26.1,62.5-48.5,73c-3.6,1.7-6.2,4.9-7.1,8.7c-0.9,3.8-0.1,7.8,2.4,10.9
	c4.1,5.3,13.6,13.7,31.8,10.8c7.3-1.1,14.1-1,20.3,0.4c4,0.9,8.1-1.6,9-5.6C82.2,457.8,79.7,453.8,75.7,452.9L75.7,452.9z"/>
<path class="st0" d="M244.2,210.8c0-27.5-23.6-49.9-52.5-49.9s-52.5,22.4-52.5,49.9s23.6,49.9,52.5,49.9S244.2,238.3,244.2,210.8
	L244.2,210.8z M154.2,210.8c0-19.2,16.8-34.9,37.5-34.9s37.5,15.6,37.5,34.9s-16.8,34.9-37.5,34.9S154.2,230.1,154.2,210.8z"/>
<path class="st0" d="M372.8,210.8c0-27.5-23.6-49.9-52.5-49.9s-52.5,22.4-52.5,49.9s23.6,49.9,52.5,49.9
	C349.2,260.7,372.8,238.3,372.8,210.8L372.8,210.8z M320.3,245.7c-20.7,0-37.5-15.6-37.5-34.9s16.8-34.9,37.5-34.9
	s37.5,15.6,37.5,34.9S341,245.7,320.3,245.7z"/>
<path class="st0" d="M336.2,339.2c0-15.6-8.7-30.1-24.6-40.8c-15-10-34.7-15.6-55.6-15.6s-40.6,5.5-55.6,15.6
	c-15.9,10.7-24.6,25.1-24.6,40.8c0,7.7,2.1,15.2,6.4,22.2c2.1,3.5,6.8,4.7,10.3,2.6c3.5-2.1,4.7-6.7,2.6-10.3
	c-2.8-4.6-4.2-9.5-4.2-14.4c0-10.5,6.4-20.5,18-28.3c12.5-8.4,29.3-13,47.2-13s34.7,4.6,47.2,13c11.6,7.8,18,17.8,18,28.3
	s-6.4,20.5-18,28.3c-12.5,8.4-29.3,13-47.2,13c-14.6,0-28.5-3.1-40.1-8.9c-3.7-1.9-8.2-0.4-10.1,3.3s-0.4,8.2,3.3,10.1
	c13.7,6.9,29.9,10.5,46.8,10.5c20.9,0,40.6-5.5,55.6-15.6C327.5,369.3,336.2,354.8,336.2,339.2L336.2,339.2z"/>
<path class="st0" d="M256,41.8c4.1,0,7.5-3.4,7.5-7.5v-10c0-4.1-3.4-7.5-7.5-7.5s-7.5,3.4-7.5,7.5v10
	C248.5,38.4,251.9,41.8,256,41.8z"/>
<path class="st0" d="M248.5,84.9c0,4.1,3.4,7.5,7.5,7.5s7.5-3.4,7.5-7.5v-10c0-4.1-3.4-7.5-7.5-7.5s-7.5,3.4-7.5,7.5V84.9z"/>
<path class="st0" d="M248.5,135.6c0,4.1,3.4,7.5,7.5,7.5s7.5-3.4,7.5-7.5v-10c0-4.1-3.4-7.5-7.5-7.5s-7.5,3.4-7.5,7.5V135.6z"/>
<path class="st0" d="M248.5,266.3c0,4.1,3.4,7.5,7.5,7.5s7.5-3.4,7.5-7.5v-10c0-4.1-3.4-7.5-7.5-7.5s-7.5,3.4-7.5,7.5V266.3z"/>
<path class="st0" d="M263.5,415.3c0-4.1-3.4-7.5-7.5-7.5s-7.5,3.4-7.5,7.5v10c0,4.1,3.4,7.5,7.5,7.5s7.5-3.4,7.5-7.5V415.3z"/>
<path class="st0" d="M256,458.5c-4.1,0-7.5,3.4-7.5,7.5v10c0,4.1,3.4,7.5,7.5,7.5s7.5-3.4,7.5-7.5v-10
	C263.5,461.8,260.1,458.5,256,458.5z"/>
</svg>
