<?xml version="1.0" encoding="utf-8"?>
<!-- Generator: Adobe Illustrator 22.0.0, SVG Export Plug-In . SVG Version: 6.00 Build 0)  -->
<svg version="1.1" id="Capa_1" xmlns="http://www.w3.org/2000/svg" xmlns:xlink="http://www.w3.org/1999/xlink" x="0px" y="0px"
	 viewBox="0 0 512 512" style="enable-background:new 0 0 512 512;" xml:space="preserve">
<style type="text/css">
	.st0{fill:#FFFFFF;}
</style>
<path class="st0" d="M310.1,257c36-19.8,58.4-57.6,58.4-98.6c0-17.7-4-34.7-11.9-50.4c-1.9-3.7-6.4-5.2-10.1-3.3
	c-3.7,1.9-5.2,6.4-3.3,10.1c6.8,13.6,10.3,28.3,10.3,43.7c0,35.6-19.4,68.3-50.6,85.5c-24.3,13.4-39.4,38.6-39.4,65.8V497h-15v-17
	c0-4.1-3.4-7.5-7.5-7.5s-7.5,3.4-7.5,7.5v24.5c0,4.1,3.4,7.5,7.5,7.5h30c4.1,0,7.5-3.4,7.5-7.5v-11.9H345
	c12.4,0,22.5-10.1,22.5-22.5s-10.1-22.5-22.5-22.5h-8c-6.9,0-12.5-5.6-12.5-12.5s5.6-12.5,12.5-12.5h8c12.4,0,22.5-10.1,22.5-22.5
	s-10.1-22.5-22.5-22.5h-66.5v-67.9C278.5,288,290.6,267.8,310.1,257L310.1,257z M345,392.6c4.1,0,7.5,3.4,7.5,7.5s-3.4,7.5-7.5,7.5
	h-8c-15.2,0-27.5,12.3-27.5,27.5s12.3,27.5,27.5,27.5h8c4.1,0,7.5,3.4,7.5,7.5s-3.4,7.5-7.5,7.5h-66.5v-85H345z"/>
<path class="st0" d="M256,225.9c-8.7,0-17.2-1.6-25.2-4.9c-3.8-1.6-8.2,0.3-9.8,4.1c-1.6,3.8,0.3,8.2,4.1,9.8c9.8,4,20.2,6,30.9,6
	c45.5,0,82.5-37,82.5-82.5s-37-82.5-82.5-82.5s-82.5,37-82.5,82.5c0,21.2,8.1,41.4,22.7,56.8c2.9,3,7.6,3.1,10.6,0.3
	c3-2.9,3.1-7.6,0.3-10.6c-12-12.6-18.6-29.1-18.6-46.5c0-37.2,30.3-67.5,67.5-67.5s67.5,30.3,67.5,67.5S293.2,225.9,256,225.9
	L256,225.9z"/>
<path class="st0" d="M455.2,7.1c-1.2-4-5.4-6.2-9.3-5C384.5,20.5,333,28.4,299.4,31.8c-5.7-18-22.3-31.2-42-31.8
	c-21.4-0.6-38.9,13.4-44.7,31.7c-34.4-3.5-85.9-11.5-146.5-29.6c-4-1.2-8.1,1.1-9.3,5c-1.2,4,1.1,8.1,5,9.3
	C123.2,34.8,175.5,43,210.5,46.6c-0.2,5.4-3.3,10.3-8,12.9c-36.4,19.7-59,57.6-59,99c0,41,22.4,78.8,58.4,98.6
	c19.5,10.7,31.6,30.9,31.6,52.7V448c0,4.1,3.4,7.5,7.5,7.5s7.5-3.4,7.5-7.5V309.7c0-27.2-15.1-52.4-39.4-65.8
	c-31.2-17.2-50.6-49.9-50.6-85.5c0-35.8,19.6-68.7,51.1-85.8c9.9-5.4,16-15.7,15.9-27l0-0.2c0-17.1,14.1-30.9,31.3-30.4
	c12,0.3,22.4,7.7,27,18.2c-4.3,0.3-8.1,0.6-11.3,0.7c-4.1-4.5-10-7.3-16.5-7.3c-8.1,0-15.2,4.3-19.1,10.7c-0.2,0.2-0.3,0.5-0.5,0.8
	c-1.9,3.3-2.9,7.1-2.9,11.1c0,12.4,10.1,22.5,22.5,22.5c12.4,0,22.5-10.1,22.5-22.5c0-0.2,0-0.3,0-0.5c2.5-0.2,5.2-0.3,8-0.6
	c0.7,10.3,6.7,19.5,15.8,24.5c8.8,4.7,16.7,10.8,23.7,18c2.9,3,7.6,3,10.6,0.2s3-7.6,0.2-10.6c-8-8.3-17.2-15.2-27.3-20.7
	c-4.7-2.6-7.7-7.3-8-12.7c34.2-3.5,86.1-11.6,148.7-30.3C454.1,15.3,456.4,11.1,455.2,7.1L455.2,7.1z M256,56.7
	c-4.1,0-7.5-3.3-7.5-7.4c4.9,0.2,9.3,0.2,15,0.1C263.4,53.4,260.1,56.7,256,56.7z"/>
</svg>
