<?xml version="1.0" encoding="utf-8"?>
<!-- Generator: Adobe Illustrator 22.0.0, SVG Export Plug-In . SVG Version: 6.00 Build 0)  -->
<svg version="1.1" id="Capa_1" xmlns="http://www.w3.org/2000/svg" xmlns:xlink="http://www.w3.org/1999/xlink" x="0px" y="0px"
	 viewBox="0 0 512 512" style="enable-background:new 0 0 512 512;" xml:space="preserve">
<style type="text/css">
	.st0{fill:#FFFFFF;}
</style>
<path class="st0" d="M352.2,497H123.5V287.8c0-4.1-3.4-7.5-7.5-7.5s-7.5,3.4-7.5,7.5v216.7c0,4.1,3.4,7.5,7.5,7.5h236.2
	c4.1,0,7.5-3.4,7.5-7.5S356.3,497,352.2,497z"/>
<path class="st0" d="M361,428h-27.5v-72.5c0-42.7-34.8-77.5-77.5-77.5c-42.7,0-77.5,34.8-77.5,77.5V428H151c-4.1,0-7.5,3.4-7.5,7.5
	s3.4,7.5,7.5,7.5h210c4.1,0,7.5-3.4,7.5-7.5S365.1,428,361,428z M193.5,356.7l15,4.4v41.3l-15,15V356.7z M256,323
	c17.9,0,32.4,14.5,32.5,32.4c0,0.1,0,0.2,0,0.3V398h-65v-42.4c0-0.1,0-0.2,0-0.3C223.6,337.5,238.1,323,256,323z M318.5,356.7v60.7
	l-15-15v-41.3L318.5,356.7z M219.1,413h30.5v15h-45.5L219.1,413z M264.6,413h28.3l15,15h-43.3V413z M316.9,341.5l-14.4,4.2
	c-4-19.1-19.5-34.1-39-37.2v-15.1C289.8,296.6,311.1,316.1,316.9,341.5L316.9,341.5z M248.5,293.4v15.1c-19.4,3.1-35,18-39,37.2
	l-14.4-4.2C200.9,316.1,222.2,296.6,248.5,293.4z"/>
<path class="st0" d="M263,84.5h-14c-8.5,0-15.5,7-15.5,15.5v16c0,8.5,7,15.5,15.5,15.5h14c8.5,0,15.5-7,15.5-15.5v-16
	C278.5,91.5,271.5,84.5,263,84.5z M263.5,116c0,0.3-0.2,0.5-0.5,0.5h-14c-0.3,0-0.5-0.2-0.5-0.5v-16c0-0.3,0.2-0.5,0.5-0.5h14
	c0.3,0,0.5,0.2,0.5,0.5V116z"/>
<path class="st0" d="M423.5,85.3V11.5C423.5,5.2,418.3,0,412,0h-52c-6.3,0-11.5,5.2-11.5,11.5V60h-55V11.5C293.5,5.2,288.3,0,282,0
	h-52c-6.3,0-11.5,5.2-11.5,11.5V60h-55V11.5C163.5,5.2,158.3,0,152,0h-52c-6.3,0-11.5,5.2-11.5,11.5v73.8C82.4,87.4,78,93.2,78,100
	v16c0,6.8,4.4,12.6,10.5,14.7v17.8v0c0,0.7,0.1,1.4,0.3,2.1l19.7,72.9V256c0,4.1,3.4,7.5,7.5,7.5s7.5-3.4,7.5-7.5v-26h265v267H384
	c-4.1,0-7.5,3.4-7.5,7.5s3.4,7.5,7.5,7.5h12c4.1,0,7.5-3.4,7.5-7.5v-281l19.7-72.9c0.3-1,0.3-1.8,0.3-2.1v-17.8
	c6.1-2.1,10.5-7.9,10.5-14.7v-16C434,93.2,429.6,87.4,423.5,85.3z M404.5,116.5c-0.3,0-0.5-0.2-0.5-0.5v-16c0-0.3,0.2-0.5,0.5-0.5
	h14c0.3,0,0.5,0.2,0.5,0.5v16c0,0.3-0.2,0.5-0.5,0.5H404.5z M363.5,15h45v45h-45V15z M233.5,15h45v45h-45V15z M103.5,15h45v45h-45
	V15z M93.5,116.5c-0.3,0-0.5-0.2-0.5-0.5v-16c0-0.3,0.2-0.5,0.5-0.5h14c0.3,0,0.5,0.2,0.5,0.5v16c0,0.3-0.2,0.5-0.5,0.5H93.5z
	 M390.3,215H121.7l-15.9-59h246.4c4.1,0,7.5-3.4,7.5-7.5s-3.4-7.5-7.5-7.5H103.5v-9.5h4c8.5,0,15.5-7,15.5-15.5v-16
	c0-8.5-7-15.5-15.5-15.5h-4V75h305v9.5h-4c-8.5,0-15.5,7-15.5,15.5v16c0,8.5,7,15.5,15.5,15.5h4v9.5H384c-4.1,0-7.5,3.4-7.5,7.5
	s3.4,7.5,7.5,7.5h22.2L390.3,215z"/>
<path class="st0" d="M340.8,84.5h-14c-8.5,0-15.5,7-15.5,15.5v16c0,8.5,7,15.5,15.5,15.5h14c8.5,0,15.5-7,15.5-15.5v-16
	C356.3,91.5,349.3,84.5,340.8,84.5z M341.3,116c0,0.3-0.2,0.5-0.5,0.5h-14c-0.3,0-0.5-0.2-0.5-0.5v-16c0-0.3,0.2-0.5,0.5-0.5h14
	c0.3,0,0.5,0.2,0.5,0.5V116z"/>
<path class="st0" d="M185.3,84.5h-14c-8.5,0-15.5,7-15.5,15.5v16c0,8.5,7,15.5,15.5,15.5h14c8.5,0,15.5-7,15.5-15.5v-16
	C200.8,91.5,193.8,84.5,185.3,84.5z M185.8,116c0,0.3-0.2,0.5-0.5,0.5h-14c-0.3,0-0.5-0.2-0.5-0.5v-16c0-0.3,0.2-0.5,0.5-0.5h14
	c0.3,0,0.5,0.2,0.5,0.5V116z"/>
</svg>
